<mxfile host="app.diagrams.net" agent="Mozilla/5.0 (Windows NT 10.0; Win64; x64) AppleWebKit/537.36 (KHTML, like Gecko) Chrome/132.0.0.0 Safari/537.36 Edg/132.0.0.0" version="26.0.11" pages="10">
  <diagram name="第 1 页" id="j7hpKJkX0_MlM3KKcf18">
    <mxGraphModel dx="1426" dy="-388" grid="1" gridSize="10" guides="1" tooltips="1" connect="1" arrows="1" fold="1" page="1" pageScale="1" pageWidth="827" pageHeight="1169" math="0" shadow="0">
      <root>
        <mxCell id="0" />
        <mxCell id="1" parent="0" />
        <mxCell id="Sp0twLcXnD4kIPiRVvhH-14" value="" style="rounded=0;whiteSpace=wrap;html=1;" vertex="1" parent="1">
          <mxGeometry x="450" y="1210" width="190" height="180" as="geometry" />
        </mxCell>
        <mxCell id="Sp0twLcXnD4kIPiRVvhH-11" value="" style="rounded=0;whiteSpace=wrap;html=1;" vertex="1" parent="1">
          <mxGeometry x="282" y="1210" width="140" height="200" as="geometry" />
        </mxCell>
        <mxCell id="Sp0twLcXnD4kIPiRVvhH-1" value="" style="rounded=0;whiteSpace=wrap;html=1;" vertex="1" parent="1">
          <mxGeometry x="280" y="1450" width="290" height="70" as="geometry" />
        </mxCell>
        <mxCell id="Sp0twLcXnD4kIPiRVvhH-13" style="edgeStyle=none;rounded=0;orthogonalLoop=1;jettySize=auto;html=1;exitX=0.5;exitY=0;exitDx=0;exitDy=0;entryX=0.5;entryY=1;entryDx=0;entryDy=0;" edge="1" parent="1" source="Sp0twLcXnD4kIPiRVvhH-2" target="Sp0twLcXnD4kIPiRVvhH-11">
          <mxGeometry relative="1" as="geometry" />
        </mxCell>
        <mxCell id="Sp0twLcXnD4kIPiRVvhH-2" value="网络一览按钮" style="rounded=0;whiteSpace=wrap;html=1;" vertex="1" parent="1">
          <mxGeometry x="294" y="1470" width="116" height="40" as="geometry" />
        </mxCell>
        <mxCell id="Sp0twLcXnD4kIPiRVvhH-3" value="网络划分按钮" style="rounded=0;whiteSpace=wrap;html=1;" vertex="1" parent="1">
          <mxGeometry x="440" y="1470" width="116" height="40" as="geometry" />
        </mxCell>
        <mxCell id="Sp0twLcXnD4kIPiRVvhH-5" value="导入网络" style="rounded=0;whiteSpace=wrap;html=1;" vertex="1" parent="1">
          <mxGeometry x="292" y="1250" width="120" height="35" as="geometry" />
        </mxCell>
        <mxCell id="Sp0twLcXnD4kIPiRVvhH-6" value="更新网络" style="rounded=0;whiteSpace=wrap;html=1;" vertex="1" parent="1">
          <mxGeometry x="292" y="1330" width="120" height="30" as="geometry" />
        </mxCell>
        <mxCell id="Sp0twLcXnD4kIPiRVvhH-8" value="删除网络" style="rounded=0;whiteSpace=wrap;html=1;" vertex="1" parent="1">
          <mxGeometry x="292" y="1375" width="120" height="30" as="geometry" />
        </mxCell>
        <mxCell id="Sp0twLcXnD4kIPiRVvhH-10" value="网络信息展示" style="rounded=0;whiteSpace=wrap;html=1;" vertex="1" parent="1">
          <mxGeometry x="292" y="1290" width="120" height="30" as="geometry" />
        </mxCell>
        <mxCell id="Sp0twLcXnD4kIPiRVvhH-12" value="网络划分" style="text;strokeColor=default;align=center;fillColor=none;html=1;verticalAlign=middle;whiteSpace=wrap;rounded=0;" vertex="1" parent="1">
          <mxGeometry x="450" y="1210" width="190" height="30" as="geometry" />
        </mxCell>
        <mxCell id="Sp0twLcXnD4kIPiRVvhH-15" value="网络一览" style="text;strokeColor=default;align=center;fillColor=none;html=1;verticalAlign=middle;whiteSpace=wrap;rounded=0;" vertex="1" parent="1">
          <mxGeometry x="282" y="1210" width="140" height="30" as="geometry" />
        </mxCell>
        <mxCell id="Sp0twLcXnD4kIPiRVvhH-16" value="划分更新" style="rounded=0;whiteSpace=wrap;html=1;" vertex="1" parent="1">
          <mxGeometry x="470" y="1260" width="120" height="40" as="geometry" />
        </mxCell>
        <mxCell id="Sp0twLcXnD4kIPiRVvhH-17" value="划分更新" style="rounded=0;whiteSpace=wrap;html=1;" vertex="1" parent="1">
          <mxGeometry x="470" y="1325" width="120" height="40" as="geometry" />
        </mxCell>
      </root>
    </mxGraphModel>
  </diagram>
  <diagram id="a2RDqssmsgyu2MKBGZgd" name="第 2 页">
    <mxGraphModel dx="1426" dy="781" grid="1" gridSize="10" guides="1" tooltips="1" connect="1" arrows="1" fold="1" page="1" pageScale="1" pageWidth="827" pageHeight="1169" math="0" shadow="0">
      <root>
        <mxCell id="0" />
        <mxCell id="1" parent="0" />
        <mxCell id="gA7IDHXUAWAN76izQz_S-2" value="用户" style="shape=umlActor;verticalLabelPosition=bottom;verticalAlign=top;html=1;outlineConnect=0;" vertex="1" parent="1">
          <mxGeometry x="220" y="120" width="30" height="60" as="geometry" />
        </mxCell>
        <mxCell id="gA7IDHXUAWAN76izQz_S-4" value="添加网络+节点+链路" style="shape=umlFrame;whiteSpace=wrap;html=1;pointerEvents=0;width=160;height=20;" vertex="1" parent="1">
          <mxGeometry x="210" y="260" width="470" height="330" as="geometry" />
        </mxCell>
        <mxCell id="gA7IDHXUAWAN76izQz_S-10" value="" style="html=1;points=[[0,0,0,0,5],[0,1,0,0,-5],[1,0,0,0,5],[1,1,0,0,-5]];perimeter=orthogonalPerimeter;outlineConnect=0;targetShapes=umlLifeline;portConstraint=eastwest;newEdgeStyle={&quot;curved&quot;:0,&quot;rounded&quot;:0};" vertex="1" parent="1">
          <mxGeometry x="220" y="210" width="10" height="410" as="geometry" />
        </mxCell>
        <mxCell id="gA7IDHXUAWAN76izQz_S-11" value="配置管理模块" style="shape=umlLifeline;perimeter=lifelinePerimeter;whiteSpace=wrap;html=1;container=1;dropTarget=0;collapsible=0;recursiveResize=0;outlineConnect=0;portConstraint=eastwest;newEdgeStyle={&quot;curved&quot;:0,&quot;rounded&quot;:0};size=20;" vertex="1" parent="1">
          <mxGeometry x="350" y="160" width="100" height="450" as="geometry" />
        </mxCell>
        <mxCell id="gA7IDHXUAWAN76izQz_S-16" value="" style="html=1;points=[[0,0,0,0,5],[0,1,0,0,-5],[1,0,0,0,5],[1,1,0,0,-5]];perimeter=orthogonalPerimeter;outlineConnect=0;targetShapes=umlLifeline;portConstraint=eastwest;newEdgeStyle={&quot;curved&quot;:0,&quot;rounded&quot;:0};" vertex="1" parent="gA7IDHXUAWAN76izQz_S-11">
          <mxGeometry x="45" y="140" width="10" height="230" as="geometry" />
        </mxCell>
        <mxCell id="gA7IDHXUAWAN76izQz_S-17" value="1.输入网络+节点+链路信息" style="html=1;verticalAlign=bottom;endArrow=block;curved=0;rounded=0;entryX=0;entryY=0;entryDx=0;entryDy=5;" edge="1" target="gA7IDHXUAWAN76izQz_S-16" parent="gA7IDHXUAWAN76izQz_S-11">
          <mxGeometry relative="1" as="geometry">
            <mxPoint x="-120" y="145" as="sourcePoint" />
          </mxGeometry>
        </mxCell>
        <mxCell id="gA7IDHXUAWAN76izQz_S-19" value="数据库" style="shape=umlLifeline;perimeter=lifelinePerimeter;whiteSpace=wrap;html=1;container=1;dropTarget=0;collapsible=0;recursiveResize=0;outlineConnect=0;portConstraint=eastwest;newEdgeStyle={&quot;curved&quot;:0,&quot;rounded&quot;:0};size=20;" vertex="1" parent="1">
          <mxGeometry x="610" y="160" width="60" height="490" as="geometry" />
        </mxCell>
        <mxCell id="gA7IDHXUAWAN76izQz_S-20" value="" style="html=1;points=[[0,0,0,0,5],[0,1,0,0,-5],[1,0,0,0,5],[1,1,0,0,-5]];perimeter=orthogonalPerimeter;outlineConnect=0;targetShapes=umlLifeline;portConstraint=eastwest;newEdgeStyle={&quot;curved&quot;:0,&quot;rounded&quot;:0};" vertex="1" parent="gA7IDHXUAWAN76izQz_S-19">
          <mxGeometry x="25" y="160" width="10" height="30" as="geometry" />
        </mxCell>
        <mxCell id="gA7IDHXUAWAN76izQz_S-29" value="" style="html=1;points=[[0,0,0,0,5],[0,1,0,0,-5],[1,0,0,0,5],[1,1,0,0,-5]];perimeter=orthogonalPerimeter;outlineConnect=0;targetShapes=umlLifeline;portConstraint=eastwest;newEdgeStyle={&quot;curved&quot;:0,&quot;rounded&quot;:0};" vertex="1" parent="gA7IDHXUAWAN76izQz_S-19">
          <mxGeometry x="25" y="200" width="10" height="30" as="geometry" />
        </mxCell>
        <mxCell id="gA7IDHXUAWAN76izQz_S-39" value="" style="html=1;points=[[0,0,0,0,5],[0,1,0,0,-5],[1,0,0,0,5],[1,1,0,0,-5]];perimeter=orthogonalPerimeter;outlineConnect=0;targetShapes=umlLifeline;portConstraint=eastwest;newEdgeStyle={&quot;curved&quot;:0,&quot;rounded&quot;:0};" vertex="1" parent="gA7IDHXUAWAN76izQz_S-19">
          <mxGeometry x="25" y="300" width="10" height="30" as="geometry" />
        </mxCell>
        <mxCell id="gA7IDHXUAWAN76izQz_S-21" value="2.插入网络信息" style="html=1;verticalAlign=bottom;endArrow=block;curved=0;rounded=0;entryX=0;entryY=0;entryDx=0;entryDy=5;align=center;" edge="1" target="gA7IDHXUAWAN76izQz_S-20" parent="1" source="gA7IDHXUAWAN76izQz_S-16">
          <mxGeometry relative="1" as="geometry">
            <mxPoint x="445" y="305" as="sourcePoint" />
          </mxGeometry>
        </mxCell>
        <mxCell id="gA7IDHXUAWAN76izQz_S-22" value="3.success" style="html=1;verticalAlign=bottom;endArrow=open;dashed=1;endSize=8;curved=0;rounded=0;exitX=0;exitY=1;exitDx=0;exitDy=-5;" edge="1" source="gA7IDHXUAWAN76izQz_S-20" parent="1" target="gA7IDHXUAWAN76izQz_S-16">
          <mxGeometry relative="1" as="geometry">
            <mxPoint x="445" y="375" as="targetPoint" />
          </mxGeometry>
        </mxCell>
        <mxCell id="gA7IDHXUAWAN76izQz_S-31" value="5. success" style="html=1;verticalAlign=bottom;endArrow=open;dashed=1;endSize=8;curved=0;rounded=0;" edge="1" source="gA7IDHXUAWAN76izQz_S-19" parent="1">
          <mxGeometry relative="1" as="geometry">
            <mxPoint x="399.5" y="390" as="targetPoint" />
            <mxPoint x="515" y="390" as="sourcePoint" />
          </mxGeometry>
        </mxCell>
        <mxCell id="gA7IDHXUAWAN76izQz_S-30" value="4.插入网元+链路信息" style="html=1;verticalAlign=bottom;endArrow=block;curved=0;rounded=0;entryX=0;entryY=0;entryDx=0;entryDy=5;" edge="1" target="gA7IDHXUAWAN76izQz_S-29" parent="1" source="gA7IDHXUAWAN76izQz_S-11">
          <mxGeometry x="0.0043" relative="1" as="geometry">
            <mxPoint x="445" y="365" as="sourcePoint" />
            <mxPoint as="offset" />
          </mxGeometry>
        </mxCell>
        <mxCell id="gA7IDHXUAWAN76izQz_S-18" value="10.return" style="html=1;verticalAlign=bottom;endArrow=open;dashed=1;endSize=8;curved=0;rounded=0;exitX=0;exitY=1;exitDx=0;exitDy=-5;" edge="1" parent="1">
          <mxGeometry relative="1" as="geometry">
            <mxPoint x="230" y="530" as="targetPoint" />
            <mxPoint x="395" y="530" as="sourcePoint" />
          </mxGeometry>
        </mxCell>
        <mxCell id="gA7IDHXUAWAN76izQz_S-35" value="节点时钟信息管理模块" style="shape=umlLifeline;perimeter=lifelinePerimeter;whiteSpace=wrap;html=1;container=1;dropTarget=0;collapsible=0;recursiveResize=0;outlineConnect=0;portConstraint=eastwest;newEdgeStyle={&quot;curved&quot;:0,&quot;rounded&quot;:0};" vertex="1" parent="1">
          <mxGeometry x="470" y="150" width="100" height="360" as="geometry" />
        </mxCell>
        <mxCell id="gA7IDHXUAWAN76izQz_S-36" value="" style="html=1;points=[[0,0,0,0,5],[0,1,0,0,-5],[1,0,0,0,5],[1,1,0,0,-5]];perimeter=orthogonalPerimeter;outlineConnect=0;targetShapes=umlLifeline;portConstraint=eastwest;newEdgeStyle={&quot;curved&quot;:0,&quot;rounded&quot;:0};" vertex="1" parent="gA7IDHXUAWAN76izQz_S-35">
          <mxGeometry x="45" y="280" width="10" height="80" as="geometry" />
        </mxCell>
        <mxCell id="gA7IDHXUAWAN76izQz_S-37" value="6.初始化网元链路时钟信息" style="html=1;verticalAlign=bottom;endArrow=block;curved=0;rounded=0;entryX=0;entryY=0;entryDx=0;entryDy=5;" edge="1" target="gA7IDHXUAWAN76izQz_S-36" parent="gA7IDHXUAWAN76izQz_S-35">
          <mxGeometry relative="1" as="geometry">
            <mxPoint x="-65" y="285" as="sourcePoint" />
          </mxGeometry>
        </mxCell>
        <mxCell id="gA7IDHXUAWAN76izQz_S-38" value="9.success" style="html=1;verticalAlign=bottom;endArrow=open;dashed=1;endSize=8;curved=0;rounded=0;exitX=0;exitY=1;exitDx=0;exitDy=-5;" edge="1" source="gA7IDHXUAWAN76izQz_S-36" parent="gA7IDHXUAWAN76izQz_S-35">
          <mxGeometry relative="1" as="geometry">
            <mxPoint x="-65" y="355" as="targetPoint" />
          </mxGeometry>
        </mxCell>
        <mxCell id="gA7IDHXUAWAN76izQz_S-41" value="8.sucess" style="html=1;verticalAlign=bottom;endArrow=open;dashed=1;endSize=8;curved=0;rounded=0;" edge="1" parent="1">
          <mxGeometry relative="1" as="geometry">
            <mxPoint x="519.5" y="490" as="targetPoint" />
            <mxPoint x="635" y="490" as="sourcePoint" />
          </mxGeometry>
        </mxCell>
        <mxCell id="gA7IDHXUAWAN76izQz_S-40" value="7.插入时钟信息" style="html=1;verticalAlign=bottom;endArrow=block;curved=0;rounded=0;entryX=0;entryY=0;entryDx=0;entryDy=5;" edge="1" parent="1">
          <mxGeometry relative="1" as="geometry">
            <mxPoint x="519.5" y="460" as="sourcePoint" />
            <mxPoint x="635" y="460" as="targetPoint" />
          </mxGeometry>
        </mxCell>
      </root>
    </mxGraphModel>
  </diagram>
  <diagram id="ckcki4THPM3F6rtqAzLd" name="数据库信息模型设计图">
    <mxGraphModel dx="1853" dy="455" grid="1" gridSize="10" guides="1" tooltips="1" connect="1" arrows="1" fold="1" page="1" pageScale="1" pageWidth="827" pageHeight="1169" math="0" shadow="0">
      <root>
        <mxCell id="0" />
        <mxCell id="1" parent="0" />
        <mxCell id="XAYjYCgtXfGzlKeXVS9C-1" value="&lt;p class=&quot;MsoNormal&quot;&gt;&lt;span style=&quot;mso-spacerun:&#39;yes&#39;;font-family:楷体;font-size:10.5000pt;&lt;br/&gt;mso-font-kerning:1.0000pt;&quot;&gt;&lt;font face=&quot;Times New Roman&quot;&gt;PhysicalPort&lt;/font&gt;&lt;/span&gt;&lt;/p&gt;" style="rounded=1;whiteSpace=wrap;html=1;" vertex="1" parent="1">
          <mxGeometry x="180" y="200" width="120" height="60" as="geometry" />
        </mxCell>
        <mxCell id="XAYjYCgtXfGzlKeXVS9C-2" value="&lt;p class=&quot;MsoNormal&quot;&gt;&lt;span style=&quot;mso-spacerun:&#39;yes&#39;;font-family:楷体;font-size:10.5000pt;&lt;br/&gt;mso-font-kerning:1.0000pt;&quot;&gt;&lt;font face=&quot;Times New Roman&quot;&gt;PhysicalLinkTimeInfo&lt;/font&gt;&lt;/span&gt;&lt;/p&gt;" style="rounded=1;whiteSpace=wrap;html=1;" vertex="1" parent="1">
          <mxGeometry x="390" y="320" width="180" height="60" as="geometry" />
        </mxCell>
        <mxCell id="XAYjYCgtXfGzlKeXVS9C-3" value="&lt;p class=&quot;MsoNormal&quot;&gt;&lt;span style=&quot;mso-spacerun:&#39;yes&#39;;font-family:楷体;font-size:10.5000pt;&lt;br/&gt;mso-font-kerning:1.0000pt;&quot;&gt;&lt;font face=&quot;Times New Roman&quot;&gt;PhysicalNode&lt;/font&gt;&lt;/span&gt;&lt;/p&gt;" style="rounded=1;whiteSpace=wrap;html=1;" vertex="1" parent="1">
          <mxGeometry x="180" y="90" width="120" height="60" as="geometry" />
        </mxCell>
        <mxCell id="XAYjYCgtXfGzlKeXVS9C-4" value="&lt;p class=&quot;MsoNormal&quot;&gt;&lt;span style=&quot;mso-spacerun:&#39;yes&#39;;font-family:楷体;font-size:10.5000pt;&lt;br/&gt;mso-font-kerning:1.0000pt;&quot;&gt;&lt;font face=&quot;Times New Roman&quot;&gt;PhysicalNet&lt;/font&gt;&lt;/span&gt;&lt;/p&gt;" style="rounded=1;whiteSpace=wrap;html=1;" vertex="1" parent="1">
          <mxGeometry x="-30" y="90" width="120" height="60" as="geometry" />
        </mxCell>
        <mxCell id="XAYjYCgtXfGzlKeXVS9C-5" value="&lt;p class=&quot;MsoNormal&quot;&gt;&lt;span style=&quot;mso-spacerun:&#39;yes&#39;;font-family:楷体;font-size:10.5000pt;&lt;br/&gt;mso-font-kerning:1.0000pt;&quot;&gt;&lt;font face=&quot;Times New Roman&quot;&gt;PhysicalNodeTimeInfo&lt;/font&gt;&lt;/span&gt;&lt;/p&gt;" style="rounded=1;whiteSpace=wrap;html=1;" vertex="1" parent="1">
          <mxGeometry x="420" y="90" width="140" height="60" as="geometry" />
        </mxCell>
        <mxCell id="XAYjYCgtXfGzlKeXVS9C-6" value="&lt;p class=&quot;MsoNormal&quot;&gt;&lt;span style=&quot;mso-spacerun:&#39;yes&#39;;font-family:楷体;font-size:10.5000pt;&lt;br/&gt;mso-font-kerning:1.0000pt;&quot;&gt;&lt;font face=&quot;Times New Roman&quot;&gt;PhysicalLink&lt;/font&gt;&lt;/span&gt;&lt;/p&gt;" style="rounded=1;whiteSpace=wrap;html=1;" vertex="1" parent="1">
          <mxGeometry x="180" y="320" width="120" height="60" as="geometry" />
        </mxCell>
        <mxCell id="XAYjYCgtXfGzlKeXVS9C-7" value="&lt;p class=&quot;MsoNormal&quot;&gt;&lt;span style=&quot;mso-spacerun:&#39;yes&#39;;font-family:楷体;font-size:10.5000pt;&lt;br/&gt;mso-font-kerning:1.0000pt;&quot;&gt;&lt;font face=&quot;Times New Roman&quot;&gt;LogicalLink&lt;/font&gt;&lt;/span&gt;&lt;/p&gt;" style="rounded=1;whiteSpace=wrap;html=1;" vertex="1" parent="1">
          <mxGeometry x="-30" y="320" width="120" height="60" as="geometry" />
        </mxCell>
        <mxCell id="XAYjYCgtXfGzlKeXVS9C-9" value="" style="endArrow=none;html=1;rounded=0;exitX=1;exitY=0.5;exitDx=0;exitDy=0;entryX=0;entryY=0.5;entryDx=0;entryDy=0;" edge="1" parent="1" source="XAYjYCgtXfGzlKeXVS9C-4" target="XAYjYCgtXfGzlKeXVS9C-3">
          <mxGeometry width="50" height="50" relative="1" as="geometry">
            <mxPoint x="60" y="210" as="sourcePoint" />
            <mxPoint x="110" y="160" as="targetPoint" />
          </mxGeometry>
        </mxCell>
        <mxCell id="XAYjYCgtXfGzlKeXVS9C-17" value="1" style="edgeLabel;html=1;align=center;verticalAlign=middle;resizable=0;points=[];" vertex="1" connectable="0" parent="XAYjYCgtXfGzlKeXVS9C-9">
          <mxGeometry x="-0.6889" y="5" relative="1" as="geometry">
            <mxPoint x="-9" y="-5" as="offset" />
          </mxGeometry>
        </mxCell>
        <mxCell id="XAYjYCgtXfGzlKeXVS9C-18" value="0...*" style="edgeLabel;html=1;align=center;verticalAlign=middle;resizable=0;points=[];" vertex="1" connectable="0" parent="XAYjYCgtXfGzlKeXVS9C-9">
          <mxGeometry x="0.6222" y="1" relative="1" as="geometry">
            <mxPoint y="-9" as="offset" />
          </mxGeometry>
        </mxCell>
        <mxCell id="XAYjYCgtXfGzlKeXVS9C-10" value="" style="endArrow=none;html=1;rounded=0;exitX=0.5;exitY=1;exitDx=0;exitDy=0;entryX=0.5;entryY=0;entryDx=0;entryDy=0;" edge="1" parent="1" source="XAYjYCgtXfGzlKeXVS9C-3" target="XAYjYCgtXfGzlKeXVS9C-1">
          <mxGeometry width="50" height="50" relative="1" as="geometry">
            <mxPoint x="100" y="130" as="sourcePoint" />
            <mxPoint x="190" y="130" as="targetPoint" />
          </mxGeometry>
        </mxCell>
        <mxCell id="XAYjYCgtXfGzlKeXVS9C-11" value="" style="endArrow=none;html=1;rounded=0;exitX=0.5;exitY=0;exitDx=0;exitDy=0;entryX=0.5;entryY=1;entryDx=0;entryDy=0;" edge="1" parent="1">
          <mxGeometry width="50" height="50" relative="1" as="geometry">
            <mxPoint x="241" y="320" as="sourcePoint" />
            <mxPoint x="241" y="260" as="targetPoint" />
          </mxGeometry>
        </mxCell>
        <mxCell id="XAYjYCgtXfGzlKeXVS9C-12" value="" style="endArrow=none;html=1;rounded=0;exitX=1;exitY=0.5;exitDx=0;exitDy=0;entryX=0;entryY=0.5;entryDx=0;entryDy=0;" edge="1" parent="1" source="XAYjYCgtXfGzlKeXVS9C-7" target="XAYjYCgtXfGzlKeXVS9C-6">
          <mxGeometry width="50" height="50" relative="1" as="geometry">
            <mxPoint x="120" y="150" as="sourcePoint" />
            <mxPoint x="210" y="150" as="targetPoint" />
          </mxGeometry>
        </mxCell>
        <mxCell id="XAYjYCgtXfGzlKeXVS9C-21" value="0...1" style="edgeLabel;html=1;align=center;verticalAlign=middle;resizable=0;points=[];" vertex="1" connectable="0" parent="XAYjYCgtXfGzlKeXVS9C-12">
          <mxGeometry x="-0.7333" y="9" relative="1" as="geometry">
            <mxPoint as="offset" />
          </mxGeometry>
        </mxCell>
        <mxCell id="XAYjYCgtXfGzlKeXVS9C-13" value="" style="endArrow=none;html=1;rounded=0;exitX=1;exitY=0.5;exitDx=0;exitDy=0;entryX=0;entryY=0.5;entryDx=0;entryDy=0;" edge="1" parent="1" source="XAYjYCgtXfGzlKeXVS9C-6" target="XAYjYCgtXfGzlKeXVS9C-2">
          <mxGeometry width="50" height="50" relative="1" as="geometry">
            <mxPoint x="100" y="360" as="sourcePoint" />
            <mxPoint x="190" y="360" as="targetPoint" />
          </mxGeometry>
        </mxCell>
        <mxCell id="XAYjYCgtXfGzlKeXVS9C-29" value="M" style="edgeLabel;html=1;align=center;verticalAlign=middle;resizable=0;points=[];" vertex="1" connectable="0" parent="XAYjYCgtXfGzlKeXVS9C-13">
          <mxGeometry x="-0.7333" y="6" relative="1" as="geometry">
            <mxPoint x="-5" y="-4" as="offset" />
          </mxGeometry>
        </mxCell>
        <mxCell id="XAYjYCgtXfGzlKeXVS9C-14" value="" style="endArrow=none;html=1;rounded=0;exitX=0;exitY=0.5;exitDx=0;exitDy=0;entryX=1;entryY=0.5;entryDx=0;entryDy=0;" edge="1" parent="1" source="XAYjYCgtXfGzlKeXVS9C-5" target="XAYjYCgtXfGzlKeXVS9C-3">
          <mxGeometry width="50" height="50" relative="1" as="geometry">
            <mxPoint x="110" y="370" as="sourcePoint" />
            <mxPoint x="200" y="370" as="targetPoint" />
          </mxGeometry>
        </mxCell>
        <mxCell id="XAYjYCgtXfGzlKeXVS9C-19" value="1" style="edgeLabel;html=1;align=center;verticalAlign=middle;resizable=0;points=[];" vertex="1" connectable="0" parent="1">
          <mxGeometry x="105" y="120" as="geometry">
            <mxPoint x="126" y="40" as="offset" />
          </mxGeometry>
        </mxCell>
        <mxCell id="XAYjYCgtXfGzlKeXVS9C-20" value="1" style="edgeLabel;html=1;align=center;verticalAlign=middle;resizable=0;points=[];" vertex="1" connectable="0" parent="1">
          <mxGeometry x="105" y="120" as="geometry">
            <mxPoint x="203" y="-11" as="offset" />
          </mxGeometry>
        </mxCell>
        <mxCell id="XAYjYCgtXfGzlKeXVS9C-22" value="0...1" style="edgeLabel;html=1;align=center;verticalAlign=middle;resizable=0;points=[];" vertex="1" connectable="0" parent="1">
          <mxGeometry x="105" y="351" as="geometry">
            <mxPoint x="298" y="-243" as="offset" />
          </mxGeometry>
        </mxCell>
        <mxCell id="XAYjYCgtXfGzlKeXVS9C-23" value="1...*" style="text;html=1;align=center;verticalAlign=middle;resizable=0;points=[];autosize=1;strokeColor=none;fillColor=none;" vertex="1" parent="1">
          <mxGeometry x="145" y="327" width="40" height="30" as="geometry" />
        </mxCell>
        <mxCell id="XAYjYCgtXfGzlKeXVS9C-24" value="1...*" style="text;html=1;align=center;verticalAlign=middle;resizable=0;points=[];autosize=1;strokeColor=none;fillColor=none;" vertex="1" parent="1">
          <mxGeometry x="204" y="298" width="40" height="30" as="geometry" />
        </mxCell>
        <mxCell id="XAYjYCgtXfGzlKeXVS9C-26" value="1...*" style="text;html=1;align=center;verticalAlign=middle;resizable=0;points=[];autosize=1;strokeColor=none;fillColor=none;" vertex="1" parent="1">
          <mxGeometry x="207" y="177" width="40" height="30" as="geometry" />
        </mxCell>
        <mxCell id="XAYjYCgtXfGzlKeXVS9C-27" value="2" style="text;html=1;align=center;verticalAlign=middle;resizable=0;points=[];autosize=1;strokeColor=none;fillColor=none;" vertex="1" parent="1">
          <mxGeometry x="218" y="255" width="30" height="30" as="geometry" />
        </mxCell>
        <mxCell id="XAYjYCgtXfGzlKeXVS9C-31" value="N" style="text;html=1;align=center;verticalAlign=middle;resizable=0;points=[];autosize=1;strokeColor=none;fillColor=none;" vertex="1" parent="1">
          <mxGeometry x="366" y="326" width="30" height="30" as="geometry" />
        </mxCell>
      </root>
    </mxGraphModel>
  </diagram>
  <diagram id="ZKq0U3RacFNb9e_GckoV" name="数据库实体关系图">
    <mxGraphModel dx="1026" dy="455" grid="1" gridSize="10" guides="1" tooltips="1" connect="1" arrows="1" fold="1" page="1" pageScale="1" pageWidth="827" pageHeight="1169" math="0" shadow="0">
      <root>
        <mxCell id="0" />
        <mxCell id="1" parent="0" />
      </root>
    </mxGraphModel>
  </diagram>
  <diagram id="xUetaEvnddN2394DiuJq" name="第 5 页">
    <mxGraphModel dx="1026" dy="455" grid="1" gridSize="10" guides="1" tooltips="1" connect="1" arrows="1" fold="1" page="1" pageScale="1" pageWidth="827" pageHeight="1169" math="0" shadow="0">
      <root>
        <mxCell id="0" />
        <mxCell id="1" parent="0" />
        <mxCell id="hPqzszi4-0cdoyNZAf83-1" value="前导码" style="rounded=0;whiteSpace=wrap;html=1;" vertex="1" parent="1">
          <mxGeometry x="40" y="260" width="80" height="50" as="geometry" />
        </mxCell>
        <mxCell id="hPqzszi4-0cdoyNZAf83-3" value="SFD" style="rounded=0;whiteSpace=wrap;html=1;" vertex="1" parent="1">
          <mxGeometry x="120" y="260" width="80" height="50" as="geometry" />
        </mxCell>
        <mxCell id="hPqzszi4-0cdoyNZAf83-4" value="目的MAC" style="rounded=0;whiteSpace=wrap;html=1;" vertex="1" parent="1">
          <mxGeometry x="200" y="260" width="80" height="50" as="geometry" />
        </mxCell>
        <mxCell id="hPqzszi4-0cdoyNZAf83-5" value="源MAC" style="rounded=0;whiteSpace=wrap;html=1;" vertex="1" parent="1">
          <mxGeometry x="280" y="260" width="80" height="50" as="geometry" />
        </mxCell>
        <mxCell id="hPqzszi4-0cdoyNZAf83-6" value="负载" style="rounded=0;whiteSpace=wrap;html=1;" vertex="1" parent="1">
          <mxGeometry x="440" y="260" width="80" height="50" as="geometry" />
        </mxCell>
        <mxCell id="hPqzszi4-0cdoyNZAf83-9" value="类型/长度" style="rounded=0;whiteSpace=wrap;html=1;" vertex="1" parent="1">
          <mxGeometry x="360" y="260" width="80" height="50" as="geometry" />
        </mxCell>
        <mxCell id="hPqzszi4-0cdoyNZAf83-10" value="CRC/FCS" style="rounded=0;whiteSpace=wrap;html=1;" vertex="1" parent="1">
          <mxGeometry x="520" y="260" width="80" height="50" as="geometry" />
        </mxCell>
        <mxCell id="hPqzszi4-0cdoyNZAf83-11" value="IFG" style="rounded=0;whiteSpace=wrap;html=1;" vertex="1" parent="1">
          <mxGeometry x="600" y="260" width="80" height="50" as="geometry" />
        </mxCell>
        <mxCell id="hPqzszi4-0cdoyNZAf83-12" value="7B" style="rounded=0;whiteSpace=wrap;html=1;" vertex="1" parent="1">
          <mxGeometry x="40" y="230" width="80" height="30" as="geometry" />
        </mxCell>
        <mxCell id="hPqzszi4-0cdoyNZAf83-13" value="1B" style="rounded=0;whiteSpace=wrap;html=1;" vertex="1" parent="1">
          <mxGeometry x="120" y="230" width="80" height="30" as="geometry" />
        </mxCell>
        <mxCell id="hPqzszi4-0cdoyNZAf83-14" value="6B" style="rounded=0;whiteSpace=wrap;html=1;" vertex="1" parent="1">
          <mxGeometry x="200" y="230" width="80" height="30" as="geometry" />
        </mxCell>
        <mxCell id="hPqzszi4-0cdoyNZAf83-15" value="6B" style="rounded=0;whiteSpace=wrap;html=1;" vertex="1" parent="1">
          <mxGeometry x="280" y="230" width="80" height="30" as="geometry" />
        </mxCell>
        <mxCell id="hPqzszi4-0cdoyNZAf83-16" value="2B" style="rounded=0;whiteSpace=wrap;html=1;" vertex="1" parent="1">
          <mxGeometry x="360" y="230" width="80" height="30" as="geometry" />
        </mxCell>
        <mxCell id="hPqzszi4-0cdoyNZAf83-17" value="14-1500B" style="rounded=0;whiteSpace=wrap;html=1;" vertex="1" parent="1">
          <mxGeometry x="440" y="230" width="80" height="30" as="geometry" />
        </mxCell>
        <mxCell id="hPqzszi4-0cdoyNZAf83-18" value="4B" style="rounded=0;whiteSpace=wrap;html=1;" vertex="1" parent="1">
          <mxGeometry x="520" y="230" width="80" height="30" as="geometry" />
        </mxCell>
        <mxCell id="hPqzszi4-0cdoyNZAf83-19" value="12B" style="rounded=0;whiteSpace=wrap;html=1;" vertex="1" parent="1">
          <mxGeometry x="600" y="230" width="80" height="30" as="geometry" />
        </mxCell>
        <mxCell id="hPqzszi4-0cdoyNZAf83-20" value="" style="endArrow=none;dashed=1;html=1;rounded=0;" edge="1" parent="1">
          <mxGeometry width="50" height="50" relative="1" as="geometry">
            <mxPoint x="200" y="230" as="sourcePoint" />
            <mxPoint x="200" y="200" as="targetPoint" />
          </mxGeometry>
        </mxCell>
        <mxCell id="hPqzszi4-0cdoyNZAf83-21" value="" style="endArrow=none;dashed=1;html=1;rounded=0;" edge="1" parent="1">
          <mxGeometry width="50" height="50" relative="1" as="geometry">
            <mxPoint x="520" y="230" as="sourcePoint" />
            <mxPoint x="520" y="200" as="targetPoint" />
          </mxGeometry>
        </mxCell>
        <mxCell id="hPqzszi4-0cdoyNZAf83-22" value="" style="endArrow=none;dashed=1;html=1;rounded=0;" edge="1" parent="1">
          <mxGeometry width="50" height="50" relative="1" as="geometry">
            <mxPoint x="200" y="220" as="sourcePoint" />
            <mxPoint x="520" y="220" as="targetPoint" />
          </mxGeometry>
        </mxCell>
        <mxCell id="hPqzszi4-0cdoyNZAf83-23" value="以太网帧长64-1518字节" style="text;html=1;align=center;verticalAlign=middle;resizable=0;points=[];autosize=1;strokeColor=none;fillColor=none;" vertex="1" parent="1">
          <mxGeometry x="280" y="190" width="150" height="30" as="geometry" />
        </mxCell>
        <mxCell id="hPqzszi4-0cdoyNZAf83-36" value="TPID" style="rounded=0;whiteSpace=wrap;html=1;" vertex="1" parent="1">
          <mxGeometry x="330" y="400" width="60" height="40" as="geometry" />
        </mxCell>
        <mxCell id="hPqzszi4-0cdoyNZAf83-37" value="16bits" style="rounded=0;whiteSpace=wrap;html=1;" vertex="1" parent="1">
          <mxGeometry x="330" y="370" width="60" height="30" as="geometry" />
        </mxCell>
        <mxCell id="hPqzszi4-0cdoyNZAf83-44" value="PCP" style="rounded=0;whiteSpace=wrap;html=1;" vertex="1" parent="1">
          <mxGeometry x="390" y="400" width="60" height="40" as="geometry" />
        </mxCell>
        <mxCell id="hPqzszi4-0cdoyNZAf83-45" value="3bits" style="rounded=0;whiteSpace=wrap;html=1;" vertex="1" parent="1">
          <mxGeometry x="390" y="370" width="60" height="30" as="geometry" />
        </mxCell>
        <mxCell id="hPqzszi4-0cdoyNZAf83-46" value="DEI" style="rounded=0;whiteSpace=wrap;html=1;" vertex="1" parent="1">
          <mxGeometry x="450" y="400" width="60" height="40" as="geometry" />
        </mxCell>
        <mxCell id="hPqzszi4-0cdoyNZAf83-47" value="1bit" style="rounded=0;whiteSpace=wrap;html=1;" vertex="1" parent="1">
          <mxGeometry x="450" y="370" width="60" height="30" as="geometry" />
        </mxCell>
        <mxCell id="hPqzszi4-0cdoyNZAf83-48" value="VLAN ID" style="rounded=0;whiteSpace=wrap;html=1;" vertex="1" parent="1">
          <mxGeometry x="510" y="400" width="60" height="40" as="geometry" />
        </mxCell>
        <mxCell id="hPqzszi4-0cdoyNZAf83-49" value="12bits" style="rounded=0;whiteSpace=wrap;html=1;" vertex="1" parent="1">
          <mxGeometry x="510" y="370" width="60" height="30" as="geometry" />
        </mxCell>
        <mxCell id="hPqzszi4-0cdoyNZAf83-50" value="" style="endArrow=none;dashed=1;html=1;rounded=0;entryX=0;entryY=1;entryDx=0;entryDy=0;exitX=0;exitY=0;exitDx=0;exitDy=0;" edge="1" parent="1" source="hPqzszi4-0cdoyNZAf83-37" target="hPqzszi4-0cdoyNZAf83-9">
          <mxGeometry width="50" height="50" relative="1" as="geometry">
            <mxPoint x="140" y="450" as="sourcePoint" />
            <mxPoint x="190" y="400" as="targetPoint" />
          </mxGeometry>
        </mxCell>
        <mxCell id="hPqzszi4-0cdoyNZAf83-53" value="" style="endArrow=none;dashed=1;html=1;rounded=0;entryX=0;entryY=1;entryDx=0;entryDy=0;exitX=1;exitY=0;exitDx=0;exitDy=0;" edge="1" parent="1" source="hPqzszi4-0cdoyNZAf83-49" target="hPqzszi4-0cdoyNZAf83-9">
          <mxGeometry width="50" height="50" relative="1" as="geometry">
            <mxPoint x="370" y="380" as="sourcePoint" />
            <mxPoint x="370" y="320" as="targetPoint" />
          </mxGeometry>
        </mxCell>
        <mxCell id="hPqzszi4-0cdoyNZAf83-54" value="801.Q标签" style="text;html=1;align=center;verticalAlign=middle;resizable=0;points=[];autosize=1;strokeColor=none;fillColor=none;" vertex="1" parent="1">
          <mxGeometry x="344" y="340" width="80" height="30" as="geometry" />
        </mxCell>
        <mxCell id="hPqzszi4-0cdoyNZAf83-55" value="" style="endArrow=none;dashed=1;html=1;rounded=0;entryX=0;entryY=1;entryDx=0;entryDy=0;" edge="1" parent="1" target="hPqzszi4-0cdoyNZAf83-11">
          <mxGeometry width="50" height="50" relative="1" as="geometry">
            <mxPoint x="600" y="500" as="sourcePoint" />
            <mxPoint x="720" y="370" as="targetPoint" />
          </mxGeometry>
        </mxCell>
        <mxCell id="hPqzszi4-0cdoyNZAf83-57" value="" style="endArrow=none;dashed=1;html=1;rounded=0;entryX=0;entryY=1;entryDx=0;entryDy=0;" edge="1" parent="1">
          <mxGeometry width="50" height="50" relative="1" as="geometry">
            <mxPoint x="200" y="500" as="sourcePoint" />
            <mxPoint x="200" y="300" as="targetPoint" />
          </mxGeometry>
        </mxCell>
        <mxCell id="hPqzszi4-0cdoyNZAf83-58" value="" style="endArrow=none;dashed=1;html=1;rounded=0;" edge="1" parent="1">
          <mxGeometry width="50" height="50" relative="1" as="geometry">
            <mxPoint x="200" y="483" as="sourcePoint" />
            <mxPoint x="600" y="483" as="targetPoint" />
          </mxGeometry>
        </mxCell>
        <mxCell id="hPqzszi4-0cdoyNZAf83-59" value="801.Q帧长 68-1522字节" style="text;html=1;align=center;verticalAlign=middle;resizable=0;points=[];autosize=1;strokeColor=none;fillColor=none;" vertex="1" parent="1">
          <mxGeometry x="320" y="460" width="150" height="30" as="geometry" />
        </mxCell>
      </root>
    </mxGraphModel>
  </diagram>
  <diagram id="1Bij1a69WJJn7GZ9-ajS" name="第 6 页">
    <mxGraphModel dx="1466" dy="650" grid="1" gridSize="10" guides="1" tooltips="1" connect="1" arrows="1" fold="1" page="1" pageScale="1" pageWidth="827" pageHeight="1169" math="0" shadow="0">
      <root>
        <mxCell id="0" />
        <mxCell id="1" parent="0" />
        <mxCell id="94jt42WijIVC-ulsKRS6-1" value="" style="endArrow=classic;html=1;rounded=0;" edge="1" parent="1">
          <mxGeometry width="50" height="50" relative="1" as="geometry">
            <mxPoint x="50" y="490" as="sourcePoint" />
            <mxPoint x="800" y="490" as="targetPoint" />
          </mxGeometry>
        </mxCell>
        <mxCell id="94jt42WijIVC-ulsKRS6-4" value="" style="verticalLabelPosition=bottom;shadow=0;dashed=0;align=center;html=0.1;verticalAlign=top;shape=mxgraph.electrical.transmission.testPoint;direction=west;" vertex="1" parent="1">
          <mxGeometry x="75" y="400" width="10" height="96" as="geometry" />
        </mxCell>
        <mxCell id="94jt42WijIVC-ulsKRS6-7" value="" style="verticalLabelPosition=bottom;shadow=0;dashed=0;align=center;html=0.1;verticalAlign=top;shape=mxgraph.electrical.transmission.testPoint;direction=west;" vertex="1" parent="1">
          <mxGeometry x="195" y="400" width="10" height="96" as="geometry" />
        </mxCell>
        <mxCell id="94jt42WijIVC-ulsKRS6-8" value="" style="verticalLabelPosition=bottom;shadow=0;dashed=0;align=center;html=0.1;verticalAlign=top;shape=mxgraph.electrical.transmission.testPoint;direction=west;" vertex="1" parent="1">
          <mxGeometry x="295" y="400" width="10" height="96" as="geometry" />
        </mxCell>
        <mxCell id="94jt42WijIVC-ulsKRS6-9" value="AVB工作组成立" style="text;html=1;align=center;verticalAlign=middle;resizable=0;points=[];autosize=1;strokeColor=none;fillColor=none;" vertex="1" parent="1">
          <mxGeometry x="45" y="368" width="110" height="30" as="geometry" />
        </mxCell>
        <mxCell id="94jt42WijIVC-ulsKRS6-11" value="IEEE 802.1Qat&lt;div&gt;标准发布&lt;/div&gt;" style="text;html=1;align=center;verticalAlign=middle;resizable=0;points=[];autosize=1;strokeColor=none;fillColor=none;" vertex="1" parent="1">
          <mxGeometry x="155" y="358" width="100" height="40" as="geometry" />
        </mxCell>
        <mxCell id="94jt42WijIVC-ulsKRS6-12" value="2005" style="text;html=1;align=center;verticalAlign=middle;resizable=0;points=[];autosize=1;strokeColor=none;fillColor=none;" vertex="1" parent="1">
          <mxGeometry x="55" y="496" width="50" height="30" as="geometry" />
        </mxCell>
        <mxCell id="94jt42WijIVC-ulsKRS6-13" value="2010" style="text;html=1;align=center;verticalAlign=middle;resizable=0;points=[];autosize=1;strokeColor=none;fillColor=none;" vertex="1" parent="1">
          <mxGeometry x="175" y="496" width="50" height="30" as="geometry" />
        </mxCell>
        <mxCell id="94jt42WijIVC-ulsKRS6-14" value="2012" style="text;html=1;align=center;verticalAlign=middle;resizable=0;points=[];autosize=1;strokeColor=none;fillColor=none;" vertex="1" parent="1">
          <mxGeometry x="275" y="496" width="50" height="30" as="geometry" />
        </mxCell>
        <mxCell id="94jt42WijIVC-ulsKRS6-15" value="TSN工作组成立" style="text;html=1;align=center;verticalAlign=middle;resizable=0;points=[];autosize=1;strokeColor=none;fillColor=none;" vertex="1" parent="1">
          <mxGeometry x="250" y="363" width="110" height="30" as="geometry" />
        </mxCell>
        <mxCell id="94jt42WijIVC-ulsKRS6-17" value="" style="verticalLabelPosition=bottom;shadow=0;dashed=0;align=center;html=0.1;verticalAlign=top;shape=mxgraph.electrical.transmission.testPoint;direction=east;" vertex="1" parent="1">
          <mxGeometry x="246" y="485" width="10" height="96" as="geometry" />
        </mxCell>
        <mxCell id="94jt42WijIVC-ulsKRS6-20" value="IEEE 802.1AS&lt;div&gt;标准发布&lt;/div&gt;" style="text;html=1;align=center;verticalAlign=middle;resizable=0;points=[];autosize=1;strokeColor=none;fillColor=none;" vertex="1" parent="1">
          <mxGeometry x="201" y="585" width="100" height="40" as="geometry" />
        </mxCell>
        <mxCell id="94jt42WijIVC-ulsKRS6-21" value="2011" style="text;html=1;align=center;verticalAlign=middle;resizable=0;points=[];autosize=1;strokeColor=none;fillColor=none;" vertex="1" parent="1">
          <mxGeometry x="225" y="456" width="50" height="30" as="geometry" />
        </mxCell>
        <mxCell id="94jt42WijIVC-ulsKRS6-22" value="" style="verticalLabelPosition=bottom;shadow=0;dashed=0;align=center;html=0.1;verticalAlign=top;shape=mxgraph.electrical.transmission.testPoint;direction=west;" vertex="1" parent="1">
          <mxGeometry x="380" y="399" width="10" height="96" as="geometry" />
        </mxCell>
        <mxCell id="94jt42WijIVC-ulsKRS6-23" value="2014" style="text;html=1;align=center;verticalAlign=middle;resizable=0;points=[];autosize=1;strokeColor=none;fillColor=none;" vertex="1" parent="1">
          <mxGeometry x="360" y="494" width="50" height="30" as="geometry" />
        </mxCell>
        <mxCell id="94jt42WijIVC-ulsKRS6-24" value="IEEE 802.1Q&lt;div&gt;标准发布&lt;/div&gt;" style="text;html=1;align=center;verticalAlign=middle;resizable=0;points=[];autosize=1;strokeColor=none;fillColor=none;" vertex="1" parent="1">
          <mxGeometry x="346" y="353" width="90" height="40" as="geometry" />
        </mxCell>
        <mxCell id="94jt42WijIVC-ulsKRS6-25" value="2016" style="text;html=1;align=center;verticalAlign=middle;resizable=0;points=[];autosize=1;strokeColor=none;fillColor=none;" vertex="1" parent="1">
          <mxGeometry x="465" y="495" width="50" height="30" as="geometry" />
        </mxCell>
        <mxCell id="94jt42WijIVC-ulsKRS6-26" value="" style="verticalLabelPosition=bottom;shadow=0;dashed=0;align=center;html=0.1;verticalAlign=top;shape=mxgraph.electrical.transmission.testPoint;direction=east;" vertex="1" parent="1">
          <mxGeometry x="436" y="485" width="10" height="96" as="geometry" />
        </mxCell>
        <mxCell id="94jt42WijIVC-ulsKRS6-27" value="IEEE 802.1Qbv&lt;br&gt;IEEE 802.1Qca&lt;br&gt;&lt;div&gt;标准发布&lt;/div&gt;" style="text;html=1;align=center;verticalAlign=middle;resizable=0;points=[];autosize=1;strokeColor=none;fillColor=none;" vertex="1" parent="1">
          <mxGeometry x="386" y="574" width="110" height="60" as="geometry" />
        </mxCell>
        <mxCell id="94jt42WijIVC-ulsKRS6-28" value="2015" style="text;html=1;align=center;verticalAlign=middle;resizable=0;points=[];autosize=1;strokeColor=none;fillColor=none;" vertex="1" parent="1">
          <mxGeometry x="415" y="455" width="50" height="30" as="geometry" />
        </mxCell>
        <mxCell id="94jt42WijIVC-ulsKRS6-29" value="IEEE 802.1Qbu&lt;div&gt;标准发布&lt;/div&gt;" style="text;html=1;align=center;verticalAlign=middle;resizable=0;points=[];autosize=1;strokeColor=none;fillColor=none;" vertex="1" parent="1">
          <mxGeometry x="434" y="354" width="110" height="40" as="geometry" />
        </mxCell>
        <mxCell id="94jt42WijIVC-ulsKRS6-30" value="" style="verticalLabelPosition=bottom;shadow=0;dashed=0;align=center;html=0.1;verticalAlign=top;shape=mxgraph.electrical.transmission.testPoint;direction=west;" vertex="1" parent="1">
          <mxGeometry x="485" y="400" width="10" height="96" as="geometry" />
        </mxCell>
        <mxCell id="94jt42WijIVC-ulsKRS6-40" value="2018" style="text;html=1;align=center;verticalAlign=middle;resizable=0;points=[];autosize=1;strokeColor=none;fillColor=none;" vertex="1" parent="1">
          <mxGeometry x="575" y="495" width="50" height="30" as="geometry" />
        </mxCell>
        <mxCell id="94jt42WijIVC-ulsKRS6-41" value="" style="verticalLabelPosition=bottom;shadow=0;dashed=0;align=center;html=0.1;verticalAlign=top;shape=mxgraph.electrical.transmission.testPoint;direction=east;" vertex="1" parent="1">
          <mxGeometry x="546" y="485" width="10" height="96" as="geometry" />
        </mxCell>
        <mxCell id="94jt42WijIVC-ulsKRS6-42" value="IEEE 802.1Qci&lt;br&gt;IEEE 802.1Qch&lt;div&gt;IEEE 802.1Qcb&lt;br&gt;&lt;div&gt;标准发布&lt;/div&gt;&lt;/div&gt;" style="text;html=1;align=center;verticalAlign=middle;resizable=0;points=[];autosize=1;strokeColor=none;fillColor=none;" vertex="1" parent="1">
          <mxGeometry x="496" y="569" width="110" height="70" as="geometry" />
        </mxCell>
        <mxCell id="94jt42WijIVC-ulsKRS6-43" value="2017" style="text;html=1;align=center;verticalAlign=middle;resizable=0;points=[];autosize=1;strokeColor=none;fillColor=none;" vertex="1" parent="1">
          <mxGeometry x="525" y="455" width="50" height="30" as="geometry" />
        </mxCell>
        <mxCell id="94jt42WijIVC-ulsKRS6-44" value="IEEE 802.1Qcc&lt;br&gt;IEEE 802.1Qcm&lt;div&gt;IEEE 802.1Qcp&lt;br&gt;&lt;div&gt;标准发布&lt;/div&gt;&lt;/div&gt;" style="text;html=1;align=center;verticalAlign=middle;resizable=0;points=[];autosize=1;strokeColor=none;fillColor=none;" vertex="1" parent="1">
          <mxGeometry x="544" y="339" width="110" height="70" as="geometry" />
        </mxCell>
        <mxCell id="94jt42WijIVC-ulsKRS6-45" value="" style="verticalLabelPosition=bottom;shadow=0;dashed=0;align=center;html=0.1;verticalAlign=top;shape=mxgraph.electrical.transmission.testPoint;direction=west;" vertex="1" parent="1">
          <mxGeometry x="595" y="400" width="10" height="96" as="geometry" />
        </mxCell>
        <mxCell id="94jt42WijIVC-ulsKRS6-46" value="2020" style="text;html=1;align=center;verticalAlign=middle;resizable=0;points=[];autosize=1;strokeColor=none;fillColor=none;" vertex="1" parent="1">
          <mxGeometry x="674" y="495" width="50" height="30" as="geometry" />
        </mxCell>
        <mxCell id="94jt42WijIVC-ulsKRS6-47" value="" style="verticalLabelPosition=bottom;shadow=0;dashed=0;align=center;html=0.1;verticalAlign=top;shape=mxgraph.electrical.transmission.testPoint;direction=east;" vertex="1" parent="1">
          <mxGeometry x="645" y="485" width="10" height="96" as="geometry" />
        </mxCell>
        <mxCell id="94jt42WijIVC-ulsKRS6-48" value="IEEE 802.1Qdj&lt;div&gt;&lt;div&gt;标准发布&lt;/div&gt;&lt;/div&gt;" style="text;html=1;align=center;verticalAlign=middle;resizable=0;points=[];autosize=1;strokeColor=none;fillColor=none;" vertex="1" parent="1">
          <mxGeometry x="600" y="584" width="100" height="40" as="geometry" />
        </mxCell>
        <mxCell id="94jt42WijIVC-ulsKRS6-49" value="2019" style="text;html=1;align=center;verticalAlign=middle;resizable=0;points=[];autosize=1;strokeColor=none;fillColor=none;" vertex="1" parent="1">
          <mxGeometry x="624" y="455" width="50" height="30" as="geometry" />
        </mxCell>
        <mxCell id="94jt42WijIVC-ulsKRS6-50" value="IEEE 802.1AS.2020&lt;br&gt;&lt;div&gt;IEEE 802.1AX.2020&lt;/div&gt;&lt;div&gt;IEEE 802.1Qcx.2020&lt;/div&gt;&lt;div&gt;IEEE 802.1Qcr.2020&lt;br&gt;&lt;div&gt;标准发布&lt;/div&gt;&lt;/div&gt;" style="text;html=1;align=center;verticalAlign=middle;resizable=0;points=[];autosize=1;strokeColor=none;fillColor=none;" vertex="1" parent="1">
          <mxGeometry x="628" y="329" width="140" height="90" as="geometry" />
        </mxCell>
        <mxCell id="94jt42WijIVC-ulsKRS6-51" value="" style="verticalLabelPosition=bottom;shadow=0;dashed=0;align=center;html=0.1;verticalAlign=top;shape=mxgraph.electrical.transmission.testPoint;direction=west;" vertex="1" parent="1">
          <mxGeometry x="694" y="400" width="10" height="96" as="geometry" />
        </mxCell>
        <mxCell id="94jt42WijIVC-ulsKRS6-54" value="" style="verticalLabelPosition=bottom;shadow=0;dashed=0;align=center;html=0.1;verticalAlign=top;shape=mxgraph.electrical.transmission.testPoint;direction=east;" vertex="1" parent="1">
          <mxGeometry x="745" y="486" width="10" height="96" as="geometry" />
        </mxCell>
        <mxCell id="94jt42WijIVC-ulsKRS6-55" value="2021" style="text;html=1;align=center;verticalAlign=middle;resizable=0;points=[];autosize=1;strokeColor=none;fillColor=none;" vertex="1" parent="1">
          <mxGeometry x="724" y="456" width="50" height="30" as="geometry" />
        </mxCell>
        <mxCell id="94jt42WijIVC-ulsKRS6-56" value="IEEE 802.1ABcu.2021&lt;br&gt;&lt;div&gt;IEEE 802.1ABdh.2021&lt;/div&gt;&lt;div&gt;IEEE 802.1CBcv.2021&lt;/div&gt;&lt;div&gt;IEEE 802.1CBdb.2021&lt;br&gt;&lt;div&gt;标准发布&lt;/div&gt;&lt;/div&gt;" style="text;html=1;align=center;verticalAlign=middle;resizable=0;points=[];autosize=1;strokeColor=none;fillColor=none;" vertex="1" parent="1">
          <mxGeometry x="684" y="556" width="140" height="90" as="geometry" />
        </mxCell>
      </root>
    </mxGraphModel>
  </diagram>
  <diagram id="9RS0uJWa8yJYNQvA2R4V" name="第 7 页">
    <mxGraphModel dx="1026" dy="455" grid="1" gridSize="10" guides="1" tooltips="1" connect="1" arrows="1" fold="1" page="1" pageScale="1" pageWidth="827" pageHeight="1169" math="0" shadow="0">
      <root>
        <mxCell id="0" />
        <mxCell id="1" parent="0" />
        <mxCell id="N86MWs8lvfDUwfoW-Nmj-1" value="" style="endArrow=none;html=1;rounded=0;" edge="1" parent="1">
          <mxGeometry width="50" height="50" relative="1" as="geometry">
            <mxPoint x="160" y="610" as="sourcePoint" />
            <mxPoint x="160" y="190" as="targetPoint" />
          </mxGeometry>
        </mxCell>
        <mxCell id="N86MWs8lvfDUwfoW-Nmj-2" value="" style="endArrow=none;html=1;rounded=0;" edge="1" parent="1">
          <mxGeometry width="50" height="50" relative="1" as="geometry">
            <mxPoint x="440" y="630" as="sourcePoint" />
            <mxPoint x="440" y="190" as="targetPoint" />
          </mxGeometry>
        </mxCell>
        <mxCell id="N86MWs8lvfDUwfoW-Nmj-3" value="&lt;font style=&quot;font-size: 18px;&quot;&gt;主时钟&lt;/font&gt;" style="text;html=1;align=center;verticalAlign=middle;resizable=0;points=[];autosize=1;strokeColor=none;fillColor=none;" vertex="1" parent="1">
          <mxGeometry x="120" y="140" width="80" height="40" as="geometry" />
        </mxCell>
        <mxCell id="N86MWs8lvfDUwfoW-Nmj-4" value="&lt;font style=&quot;font-size: 18px;&quot;&gt;从时钟&lt;/font&gt;" style="text;html=1;align=center;verticalAlign=middle;resizable=0;points=[];autosize=1;strokeColor=none;fillColor=none;" vertex="1" parent="1">
          <mxGeometry x="400" y="140" width="80" height="40" as="geometry" />
        </mxCell>
        <mxCell id="N86MWs8lvfDUwfoW-Nmj-5" value="&lt;font style=&quot;font-size: 18px;&quot;&gt;t1&lt;/font&gt;" style="text;html=1;align=center;verticalAlign=middle;resizable=0;points=[];autosize=1;strokeColor=none;fillColor=none;" vertex="1" parent="1">
          <mxGeometry x="120" y="220" width="40" height="40" as="geometry" />
        </mxCell>
        <mxCell id="N86MWs8lvfDUwfoW-Nmj-6" value="" style="endArrow=none;dashed=1;html=1;rounded=0;" edge="1" parent="1">
          <mxGeometry width="50" height="50" relative="1" as="geometry">
            <mxPoint x="160" y="240" as="sourcePoint" />
            <mxPoint x="480" y="240" as="targetPoint" />
          </mxGeometry>
        </mxCell>
        <mxCell id="N86MWs8lvfDUwfoW-Nmj-7" value="" style="endArrow=none;dashed=1;html=1;rounded=0;" edge="1" parent="1">
          <mxGeometry width="50" height="50" relative="1" as="geometry">
            <mxPoint x="440" y="200" as="sourcePoint" />
            <mxPoint x="490" y="200" as="targetPoint" />
          </mxGeometry>
        </mxCell>
        <mxCell id="N86MWs8lvfDUwfoW-Nmj-8" value="" style="endArrow=none;dashed=1;html=1;rounded=0;" edge="1" parent="1" source="N86MWs8lvfDUwfoW-Nmj-24">
          <mxGeometry width="50" height="50" relative="1" as="geometry">
            <mxPoint x="440" y="310" as="sourcePoint" />
            <mxPoint x="490" y="310" as="targetPoint" />
          </mxGeometry>
        </mxCell>
        <mxCell id="N86MWs8lvfDUwfoW-Nmj-9" value="" style="endArrow=none;dashed=1;html=1;rounded=0;" edge="1" parent="1">
          <mxGeometry width="50" height="50" relative="1" as="geometry">
            <mxPoint x="440" y="420" as="sourcePoint" />
            <mxPoint x="490" y="420" as="targetPoint" />
          </mxGeometry>
        </mxCell>
        <mxCell id="N86MWs8lvfDUwfoW-Nmj-10" value="" style="endArrow=none;dashed=1;html=1;rounded=0;" edge="1" parent="1">
          <mxGeometry width="50" height="50" relative="1" as="geometry">
            <mxPoint x="440" y="530" as="sourcePoint" />
            <mxPoint x="490" y="530" as="targetPoint" />
          </mxGeometry>
        </mxCell>
        <mxCell id="N86MWs8lvfDUwfoW-Nmj-11" value="" style="endArrow=none;dashed=1;html=1;rounded=0;" edge="1" parent="1">
          <mxGeometry width="50" height="50" relative="1" as="geometry">
            <mxPoint x="440" y="490" as="sourcePoint" />
            <mxPoint x="490" y="490" as="targetPoint" />
          </mxGeometry>
        </mxCell>
        <mxCell id="N86MWs8lvfDUwfoW-Nmj-12" value="" style="endArrow=none;dashed=1;html=1;dashPattern=1 3;strokeWidth=2;rounded=0;" edge="1" parent="1">
          <mxGeometry width="50" height="50" relative="1" as="geometry">
            <mxPoint x="160" y="240" as="sourcePoint" />
            <mxPoint x="440" y="200" as="targetPoint" />
          </mxGeometry>
        </mxCell>
        <mxCell id="N86MWs8lvfDUwfoW-Nmj-13" value="" style="endArrow=classic;startArrow=classic;html=1;rounded=0;" edge="1" parent="1">
          <mxGeometry width="50" height="50" relative="1" as="geometry">
            <mxPoint x="480" y="240" as="sourcePoint" />
            <mxPoint x="480" y="200" as="targetPoint" />
          </mxGeometry>
        </mxCell>
        <mxCell id="N86MWs8lvfDUwfoW-Nmj-14" value="&lt;font style=&quot;font-size: 18px;&quot;&gt;offset&lt;/font&gt;" style="text;html=1;align=center;verticalAlign=middle;resizable=0;points=[];autosize=1;strokeColor=none;fillColor=none;" vertex="1" parent="1">
          <mxGeometry x="468" y="203" width="70" height="40" as="geometry" />
        </mxCell>
        <mxCell id="N86MWs8lvfDUwfoW-Nmj-16" value="" style="endArrow=classic;startArrow=classic;html=1;rounded=0;" edge="1" parent="1">
          <mxGeometry width="50" height="50" relative="1" as="geometry">
            <mxPoint x="480" y="310" as="sourcePoint" />
            <mxPoint x="480" y="238" as="targetPoint" />
          </mxGeometry>
        </mxCell>
        <mxCell id="N86MWs8lvfDUwfoW-Nmj-17" value="&lt;font style=&quot;font-size: 18px;&quot;&gt;delay&lt;/font&gt;" style="text;html=1;align=center;verticalAlign=middle;resizable=0;points=[];autosize=1;strokeColor=none;fillColor=none;" vertex="1" parent="1">
          <mxGeometry x="469" y="261" width="70" height="40" as="geometry" />
        </mxCell>
        <mxCell id="N86MWs8lvfDUwfoW-Nmj-18" value="" style="endArrow=classic;html=1;rounded=0;" edge="1" parent="1">
          <mxGeometry width="50" height="50" relative="1" as="geometry">
            <mxPoint x="160" y="240" as="sourcePoint" />
            <mxPoint x="440" y="310" as="targetPoint" />
          </mxGeometry>
        </mxCell>
        <mxCell id="N86MWs8lvfDUwfoW-Nmj-20" value="" style="endArrow=classic;html=1;rounded=0;" edge="1" parent="1">
          <mxGeometry width="50" height="50" relative="1" as="geometry">
            <mxPoint x="160" y="280" as="sourcePoint" />
            <mxPoint x="440" y="350" as="targetPoint" />
          </mxGeometry>
        </mxCell>
        <mxCell id="N86MWs8lvfDUwfoW-Nmj-21" value="&lt;font style=&quot;font-size: 18px;&quot;&gt;sync&lt;/font&gt;" style="text;html=1;align=center;verticalAlign=middle;resizable=0;points=[];autosize=1;strokeColor=none;fillColor=none;rotation=15;" vertex="1" parent="1">
          <mxGeometry x="250" y="243" width="60" height="40" as="geometry" />
        </mxCell>
        <mxCell id="N86MWs8lvfDUwfoW-Nmj-23" value="&lt;font style=&quot;font-size: 18px;&quot;&gt;Follow_up(t1)&lt;/font&gt;" style="text;html=1;align=center;verticalAlign=middle;resizable=0;points=[];autosize=1;strokeColor=none;fillColor=none;rotation=15;" vertex="1" parent="1">
          <mxGeometry x="225" y="282" width="130" height="40" as="geometry" />
        </mxCell>
        <mxCell id="N86MWs8lvfDUwfoW-Nmj-25" value="" style="endArrow=none;dashed=1;html=1;rounded=0;" edge="1" parent="1" target="N86MWs8lvfDUwfoW-Nmj-24">
          <mxGeometry width="50" height="50" relative="1" as="geometry">
            <mxPoint x="440" y="310" as="sourcePoint" />
            <mxPoint x="490" y="310" as="targetPoint" />
          </mxGeometry>
        </mxCell>
        <mxCell id="N86MWs8lvfDUwfoW-Nmj-24" value="&lt;font style=&quot;font-size: 18px;&quot;&gt;t2&lt;/font&gt;" style="text;html=1;align=center;verticalAlign=middle;resizable=0;points=[];autosize=1;strokeColor=none;fillColor=none;" vertex="1" parent="1">
          <mxGeometry x="480" y="291" width="40" height="40" as="geometry" />
        </mxCell>
        <mxCell id="N86MWs8lvfDUwfoW-Nmj-26" value="&lt;font style=&quot;font-size: 18px;&quot;&gt;Sync报文：&lt;/font&gt;&lt;div&gt;&lt;font size=&quot;3&quot;&gt;包含发送时刻估计值&lt;/font&gt;&lt;/div&gt;&lt;div&gt;&lt;font size=&quot;3&quot;&gt;OriginTimeStamp&lt;/font&gt;&lt;/div&gt;" style="text;html=1;align=left;verticalAlign=middle;resizable=0;points=[];autosize=1;strokeColor=none;fillColor=none;" vertex="1" parent="1">
          <mxGeometry x="560" y="330" width="170" height="70" as="geometry" />
        </mxCell>
        <mxCell id="N86MWs8lvfDUwfoW-Nmj-27" value="" style="endArrow=none;dashed=1;html=1;rounded=0;" edge="1" parent="1">
          <mxGeometry width="50" height="50" relative="1" as="geometry">
            <mxPoint x="160" y="530" as="sourcePoint" />
            <mxPoint x="480" y="530" as="targetPoint" />
          </mxGeometry>
        </mxCell>
        <mxCell id="N86MWs8lvfDUwfoW-Nmj-28" value="&lt;font style=&quot;font-size: 18px;&quot;&gt;t4&lt;/font&gt;" style="text;html=1;align=center;verticalAlign=middle;resizable=0;points=[];autosize=1;strokeColor=none;fillColor=none;" vertex="1" parent="1">
          <mxGeometry x="124" y="512" width="40" height="40" as="geometry" />
        </mxCell>
        <mxCell id="N86MWs8lvfDUwfoW-Nmj-29" value="" style="endArrow=classic;html=1;rounded=0;" edge="1" parent="1">
          <mxGeometry width="50" height="50" relative="1" as="geometry">
            <mxPoint x="440" y="420" as="sourcePoint" />
            <mxPoint x="160" y="530" as="targetPoint" />
          </mxGeometry>
        </mxCell>
        <mxCell id="N86MWs8lvfDUwfoW-Nmj-30" value="" style="endArrow=none;dashed=1;html=1;dashPattern=1 3;strokeWidth=2;rounded=0;exitX=0.875;exitY=0.4;exitDx=0;exitDy=0;exitPerimeter=0;" edge="1" parent="1" source="N86MWs8lvfDUwfoW-Nmj-28">
          <mxGeometry width="50" height="50" relative="1" as="geometry">
            <mxPoint x="170" y="250" as="sourcePoint" />
            <mxPoint x="440" y="490" as="targetPoint" />
          </mxGeometry>
        </mxCell>
        <mxCell id="N86MWs8lvfDUwfoW-Nmj-31" value="" style="endArrow=classic;html=1;rounded=0;" edge="1" parent="1">
          <mxGeometry width="50" height="50" relative="1" as="geometry">
            <mxPoint x="160" y="552" as="sourcePoint" />
            <mxPoint x="440" y="622" as="targetPoint" />
          </mxGeometry>
        </mxCell>
        <mxCell id="N86MWs8lvfDUwfoW-Nmj-32" value="&lt;font style=&quot;font-size: 18px;&quot;&gt;Delay_Resp(t4)&lt;/font&gt;" style="text;html=1;align=center;verticalAlign=middle;resizable=0;points=[];autosize=1;strokeColor=none;fillColor=none;rotation=15;" vertex="1" parent="1">
          <mxGeometry x="220" y="580" width="150" height="40" as="geometry" />
        </mxCell>
        <mxCell id="N86MWs8lvfDUwfoW-Nmj-33" value="&lt;font style=&quot;font-size: 18px;&quot;&gt;Delay_Req&lt;/font&gt;" style="text;html=1;align=center;verticalAlign=middle;resizable=0;points=[];autosize=1;strokeColor=none;fillColor=none;rotation=-20;" vertex="1" parent="1">
          <mxGeometry x="215" y="453" width="110" height="40" as="geometry" />
        </mxCell>
        <mxCell id="N86MWs8lvfDUwfoW-Nmj-34" value="&lt;font style=&quot;font-size: 18px;&quot;&gt;t3&lt;/font&gt;" style="text;html=1;align=center;verticalAlign=middle;resizable=0;points=[];autosize=1;strokeColor=none;fillColor=none;" vertex="1" parent="1">
          <mxGeometry x="490" y="400" width="40" height="40" as="geometry" />
        </mxCell>
        <mxCell id="N86MWs8lvfDUwfoW-Nmj-35" value="" style="endArrow=classic;startArrow=classic;html=1;rounded=0;" edge="1" parent="1">
          <mxGeometry width="50" height="50" relative="1" as="geometry">
            <mxPoint x="451" y="528" as="sourcePoint" />
            <mxPoint x="451" y="488" as="targetPoint" />
          </mxGeometry>
        </mxCell>
        <mxCell id="N86MWs8lvfDUwfoW-Nmj-36" value="&lt;font style=&quot;font-size: 18px;&quot;&gt;offset&lt;/font&gt;" style="text;html=1;align=center;verticalAlign=middle;resizable=0;points=[];autosize=1;strokeColor=none;fillColor=none;" vertex="1" parent="1">
          <mxGeometry x="439" y="491" width="70" height="40" as="geometry" />
        </mxCell>
        <mxCell id="N86MWs8lvfDUwfoW-Nmj-37" value="" style="endArrow=none;dashed=1;html=1;rounded=0;" edge="1" parent="1">
          <mxGeometry width="50" height="50" relative="1" as="geometry">
            <mxPoint x="491" y="490" as="sourcePoint" />
            <mxPoint x="501" y="491" as="targetPoint" />
          </mxGeometry>
        </mxCell>
        <mxCell id="N86MWs8lvfDUwfoW-Nmj-38" value="" style="endArrow=classic;startArrow=classic;html=1;rounded=0;exitX=0.729;exitY=0.975;exitDx=0;exitDy=0;exitPerimeter=0;" edge="1" parent="1" source="N86MWs8lvfDUwfoW-Nmj-36">
          <mxGeometry width="50" height="50" relative="1" as="geometry">
            <mxPoint x="491" y="491" as="sourcePoint" />
            <mxPoint x="491" y="419" as="targetPoint" />
          </mxGeometry>
        </mxCell>
        <mxCell id="N86MWs8lvfDUwfoW-Nmj-39" value="&lt;font style=&quot;font-size: 18px;&quot;&gt;delay&lt;/font&gt;" style="text;html=1;align=center;verticalAlign=middle;resizable=0;points=[];autosize=1;strokeColor=none;fillColor=none;" vertex="1" parent="1">
          <mxGeometry x="490" y="453" width="70" height="40" as="geometry" />
        </mxCell>
        <mxCell id="N86MWs8lvfDUwfoW-Nmj-40" value="&lt;font style=&quot;font-size: 18px;&quot;&gt;Follow_up报文：&lt;/font&gt;&lt;div&gt;&lt;font size=&quot;3&quot;&gt;包含发送时刻精确值&lt;/font&gt;&lt;/div&gt;&lt;div&gt;&lt;font size=&quot;3&quot;&gt;PreciseOriginTimeStamp&lt;/font&gt;&lt;/div&gt;" style="text;html=1;align=left;verticalAlign=middle;resizable=0;points=[];autosize=1;strokeColor=none;fillColor=none;" vertex="1" parent="1">
          <mxGeometry x="560" y="461" width="200" height="70" as="geometry" />
        </mxCell>
        <mxCell id="N86MWs8lvfDUwfoW-Nmj-41" value="" style="endArrow=classic;html=1;rounded=0;exitX=1.091;exitY=0.236;exitDx=0;exitDy=0;exitPerimeter=0;entryX=-0.006;entryY=0.157;entryDx=0;entryDy=0;entryPerimeter=0;fillColor=#FFFF99;strokeColor=light-dark(#FF0000,#FFFFFF);" edge="1" parent="1" source="N86MWs8lvfDUwfoW-Nmj-21" target="N86MWs8lvfDUwfoW-Nmj-26">
          <mxGeometry width="50" height="50" relative="1" as="geometry">
            <mxPoint x="500" y="110" as="sourcePoint" />
            <mxPoint x="550" y="60" as="targetPoint" />
          </mxGeometry>
        </mxCell>
        <mxCell id="N86MWs8lvfDUwfoW-Nmj-42" value="" style="endArrow=classic;html=1;rounded=0;fillColor=#FFFF99;strokeColor=light-dark(#FF0000,#FFFFFF);" edge="1" parent="1" source="N86MWs8lvfDUwfoW-Nmj-23" target="N86MWs8lvfDUwfoW-Nmj-40">
          <mxGeometry width="50" height="50" relative="1" as="geometry">
            <mxPoint x="327" y="272" as="sourcePoint" />
            <mxPoint x="569" y="351" as="targetPoint" />
          </mxGeometry>
        </mxCell>
      </root>
    </mxGraphModel>
  </diagram>
  <diagram id="2HoNv7Qw9GcF8NjhWkBp" name="第 8 页">
    <mxGraphModel dx="1666" dy="815" grid="1" gridSize="10" guides="1" tooltips="1" connect="1" arrows="1" fold="1" page="1" pageScale="1" pageWidth="827" pageHeight="1169" math="0" shadow="0">
      <root>
        <mxCell id="0" />
        <mxCell id="1" parent="0" />
        <mxCell id="lNASgoefMsx88-HdjxAE-2" value="" style="html=1;points=[[0,0,0,0,5],[0,1,0,0,-5],[1,0,0,0,5],[1,1,0,0,-5]];perimeter=orthogonalPerimeter;outlineConnect=0;targetShapes=umlLifeline;portConstraint=eastwest;newEdgeStyle={&quot;curved&quot;:0,&quot;rounded&quot;:0};" vertex="1" parent="1">
          <mxGeometry x="250" y="260" width="10" height="370" as="geometry" />
        </mxCell>
        <mxCell id="qEWcbtb0CGJZAtVDJI3l-1" value="添加网络+节点+链路" style="shape=umlFrame;whiteSpace=wrap;html=1;pointerEvents=0;width=130;height=30;" vertex="1" parent="1">
          <mxGeometry x="190" y="300" width="590" height="290" as="geometry" />
        </mxCell>
        <mxCell id="lNASgoefMsx88-HdjxAE-1" value="用户" style="shape=umlActor;verticalLabelPosition=bottom;verticalAlign=top;html=1;" vertex="1" parent="1">
          <mxGeometry x="240" y="190" width="30" height="60" as="geometry" />
        </mxCell>
        <mxCell id="lNASgoefMsx88-HdjxAE-3" value="网络管理模块" style="shape=umlLifeline;perimeter=lifelinePerimeter;whiteSpace=wrap;html=1;container=1;dropTarget=0;collapsible=0;recursiveResize=0;outlineConnect=0;portConstraint=eastwest;newEdgeStyle={&quot;curved&quot;:0,&quot;rounded&quot;:0};" vertex="1" parent="1">
          <mxGeometry x="435" y="220" width="100" height="410" as="geometry" />
        </mxCell>
        <mxCell id="lNASgoefMsx88-HdjxAE-4" value="数据库" style="shape=umlLifeline;perimeter=lifelinePerimeter;whiteSpace=wrap;html=1;container=1;dropTarget=0;collapsible=0;recursiveResize=0;outlineConnect=0;portConstraint=eastwest;newEdgeStyle={&quot;curved&quot;:0,&quot;rounded&quot;:0};size=40;" vertex="1" parent="1">
          <mxGeometry x="640" y="220" width="100" height="420" as="geometry" />
        </mxCell>
        <mxCell id="lNASgoefMsx88-HdjxAE-8" value="" style="html=1;points=[[0,0,0,0,5],[0,1,0,0,-5],[1,0,0,0,5],[1,1,0,0,-5]];perimeter=orthogonalPerimeter;outlineConnect=0;targetShapes=umlLifeline;portConstraint=eastwest;newEdgeStyle={&quot;curved&quot;:0,&quot;rounded&quot;:0};" vertex="1" parent="lNASgoefMsx88-HdjxAE-4">
          <mxGeometry x="45" y="150" width="10" height="30" as="geometry" />
        </mxCell>
        <mxCell id="lNASgoefMsx88-HdjxAE-5" value="" style="html=1;points=[[0,0,0,0,5],[0,1,0,0,-5],[1,0,0,0,5],[1,1,0,0,-5]];perimeter=orthogonalPerimeter;outlineConnect=0;targetShapes=umlLifeline;portConstraint=eastwest;newEdgeStyle={&quot;curved&quot;:0,&quot;rounded&quot;:0};" vertex="1" parent="1">
          <mxGeometry x="480" y="360" width="10" height="170" as="geometry" />
        </mxCell>
        <mxCell id="lNASgoefMsx88-HdjxAE-6" value="1.输入网络+节点+链路信息" style="html=1;verticalAlign=bottom;endArrow=block;curved=0;rounded=0;entryX=0;entryY=0;entryDx=0;entryDy=5;" edge="1" target="lNASgoefMsx88-HdjxAE-5" parent="1">
          <mxGeometry relative="1" as="geometry">
            <mxPoint x="260" y="365" as="sourcePoint" />
          </mxGeometry>
        </mxCell>
        <mxCell id="lNASgoefMsx88-HdjxAE-7" value="8.return" style="html=1;verticalAlign=bottom;endArrow=open;dashed=1;endSize=8;curved=0;rounded=0;exitX=0;exitY=1;exitDx=0;exitDy=-5;" edge="1" source="lNASgoefMsx88-HdjxAE-5" parent="1" target="lNASgoefMsx88-HdjxAE-2">
          <mxGeometry relative="1" as="geometry">
            <mxPoint x="260" y="435" as="targetPoint" />
          </mxGeometry>
        </mxCell>
        <mxCell id="lNASgoefMsx88-HdjxAE-10" value="3.success" style="html=1;verticalAlign=bottom;endArrow=open;dashed=1;endSize=8;curved=0;rounded=0;" edge="1" parent="1">
          <mxGeometry relative="1" as="geometry">
            <mxPoint x="490" y="400" as="targetPoint" />
            <mxPoint x="685" y="400" as="sourcePoint" />
          </mxGeometry>
        </mxCell>
        <mxCell id="lNASgoefMsx88-HdjxAE-9" value="2.插入网络信息" style="html=1;verticalAlign=bottom;endArrow=block;curved=0;rounded=0;entryX=0;entryY=0;entryDx=0;entryDy=5;" edge="1" target="lNASgoefMsx88-HdjxAE-8" parent="1" source="lNASgoefMsx88-HdjxAE-5">
          <mxGeometry relative="1" as="geometry">
            <mxPoint x="615" y="375" as="sourcePoint" />
          </mxGeometry>
        </mxCell>
        <mxCell id="lNASgoefMsx88-HdjxAE-11" value="" style="html=1;points=[[0,0,0,0,5],[0,1,0,0,-5],[1,0,0,0,5],[1,1,0,0,-5]];perimeter=orthogonalPerimeter;outlineConnect=0;targetShapes=umlLifeline;portConstraint=eastwest;newEdgeStyle={&quot;curved&quot;:0,&quot;rounded&quot;:0};" vertex="1" parent="1">
          <mxGeometry x="685" y="420" width="10" height="30" as="geometry" />
        </mxCell>
        <mxCell id="lNASgoefMsx88-HdjxAE-12" value="5.success" style="html=1;verticalAlign=bottom;endArrow=open;dashed=1;endSize=8;curved=0;rounded=0;" edge="1" parent="1">
          <mxGeometry relative="1" as="geometry">
            <mxPoint x="490" y="450" as="targetPoint" />
            <mxPoint x="685" y="450" as="sourcePoint" />
          </mxGeometry>
        </mxCell>
        <mxCell id="lNASgoefMsx88-HdjxAE-13" value="4.插入节点" style="html=1;verticalAlign=bottom;endArrow=block;curved=0;rounded=0;entryX=0;entryY=0;entryDx=0;entryDy=5;" edge="1" parent="1" target="lNASgoefMsx88-HdjxAE-11">
          <mxGeometry relative="1" as="geometry">
            <mxPoint x="490" y="425" as="sourcePoint" />
          </mxGeometry>
        </mxCell>
        <mxCell id="lNASgoefMsx88-HdjxAE-14" value="" style="html=1;points=[[0,0,0,0,5],[0,1,0,0,-5],[1,0,0,0,5],[1,1,0,0,-5]];perimeter=orthogonalPerimeter;outlineConnect=0;targetShapes=umlLifeline;portConstraint=eastwest;newEdgeStyle={&quot;curved&quot;:0,&quot;rounded&quot;:0};" vertex="1" parent="1">
          <mxGeometry x="685" y="480" width="10" height="30" as="geometry" />
        </mxCell>
        <mxCell id="lNASgoefMsx88-HdjxAE-15" value="7.success" style="html=1;verticalAlign=bottom;endArrow=open;dashed=1;endSize=8;curved=0;rounded=0;" edge="1" parent="1">
          <mxGeometry relative="1" as="geometry">
            <mxPoint x="490" y="510" as="targetPoint" />
            <mxPoint x="685" y="510" as="sourcePoint" />
          </mxGeometry>
        </mxCell>
        <mxCell id="lNASgoefMsx88-HdjxAE-16" value="6.插入链路" style="html=1;verticalAlign=bottom;endArrow=block;curved=0;rounded=0;entryX=0;entryY=0;entryDx=0;entryDy=5;" edge="1" parent="1" target="lNASgoefMsx88-HdjxAE-14">
          <mxGeometry relative="1" as="geometry">
            <mxPoint x="490" y="485" as="sourcePoint" />
          </mxGeometry>
        </mxCell>
      </root>
    </mxGraphModel>
  </diagram>
  <diagram id="bfPl6DexxRJ90amxaySx" name="第 9 页">
    <mxGraphModel dx="1026" dy="455" grid="1" gridSize="10" guides="1" tooltips="1" connect="1" arrows="1" fold="1" page="1" pageScale="1" pageWidth="827" pageHeight="1169" math="0" shadow="0">
      <root>
        <mxCell id="0" />
        <mxCell id="1" parent="0" />
        <mxCell id="bwl6721Emv68G6iye8B_-1" value="" style="html=1;points=[[0,0,0,0,5],[0,1,0,0,-5],[1,0,0,0,5],[1,1,0,0,-5]];perimeter=orthogonalPerimeter;outlineConnect=0;targetShapes=umlLifeline;portConstraint=eastwest;newEdgeStyle={&quot;curved&quot;:0,&quot;rounded&quot;:0};" vertex="1" parent="1">
          <mxGeometry x="250" y="260" width="10" height="370" as="geometry" />
        </mxCell>
        <mxCell id="bwl6721Emv68G6iye8B_-2" value="更新网络" style="shape=umlFrame;whiteSpace=wrap;html=1;pointerEvents=0;width=130;height=30;" vertex="1" parent="1">
          <mxGeometry x="190" y="300" width="520" height="290" as="geometry" />
        </mxCell>
        <mxCell id="bwl6721Emv68G6iye8B_-3" value="用户" style="shape=umlActor;verticalLabelPosition=bottom;verticalAlign=top;html=1;" vertex="1" parent="1">
          <mxGeometry x="240" y="190" width="30" height="60" as="geometry" />
        </mxCell>
        <mxCell id="bwl6721Emv68G6iye8B_-4" value="网络管理模块" style="shape=umlLifeline;perimeter=lifelinePerimeter;whiteSpace=wrap;html=1;container=1;dropTarget=0;collapsible=0;recursiveResize=0;outlineConnect=0;portConstraint=eastwest;newEdgeStyle={&quot;curved&quot;:0,&quot;rounded&quot;:0};" vertex="1" parent="1">
          <mxGeometry x="390" y="220" width="100" height="410" as="geometry" />
        </mxCell>
        <mxCell id="bwl6721Emv68G6iye8B_-5" value="数据库" style="shape=umlLifeline;perimeter=lifelinePerimeter;whiteSpace=wrap;html=1;container=1;dropTarget=0;collapsible=0;recursiveResize=0;outlineConnect=0;portConstraint=eastwest;newEdgeStyle={&quot;curved&quot;:0,&quot;rounded&quot;:0};size=40;" vertex="1" parent="1">
          <mxGeometry x="595" y="220" width="100" height="420" as="geometry" />
        </mxCell>
        <mxCell id="bwl6721Emv68G6iye8B_-6" value="" style="html=1;points=[[0,0,0,0,5],[0,1,0,0,-5],[1,0,0,0,5],[1,1,0,0,-5]];perimeter=orthogonalPerimeter;outlineConnect=0;targetShapes=umlLifeline;portConstraint=eastwest;newEdgeStyle={&quot;curved&quot;:0,&quot;rounded&quot;:0};" vertex="1" parent="bwl6721Emv68G6iye8B_-5">
          <mxGeometry x="45" y="150" width="10" height="30" as="geometry" />
        </mxCell>
        <mxCell id="bwl6721Emv68G6iye8B_-7" value="" style="html=1;points=[[0,0,0,0,5],[0,1,0,0,-5],[1,0,0,0,5],[1,1,0,0,-5]];perimeter=orthogonalPerimeter;outlineConnect=0;targetShapes=umlLifeline;portConstraint=eastwest;newEdgeStyle={&quot;curved&quot;:0,&quot;rounded&quot;:0};" vertex="1" parent="1">
          <mxGeometry x="435" y="360" width="10" height="170" as="geometry" />
        </mxCell>
        <mxCell id="bwl6721Emv68G6iye8B_-8" value="1.更新网络" style="html=1;verticalAlign=bottom;endArrow=block;curved=0;rounded=0;entryX=0;entryY=0;entryDx=0;entryDy=5;" edge="1" parent="1" target="bwl6721Emv68G6iye8B_-7">
          <mxGeometry relative="1" as="geometry">
            <mxPoint x="260" y="365" as="sourcePoint" />
          </mxGeometry>
        </mxCell>
        <mxCell id="bwl6721Emv68G6iye8B_-9" value="8.return" style="html=1;verticalAlign=bottom;endArrow=open;dashed=1;endSize=8;curved=0;rounded=0;exitX=0;exitY=1;exitDx=0;exitDy=-5;" edge="1" parent="1" source="bwl6721Emv68G6iye8B_-7" target="bwl6721Emv68G6iye8B_-1">
          <mxGeometry relative="1" as="geometry">
            <mxPoint x="260" y="435" as="targetPoint" />
          </mxGeometry>
        </mxCell>
        <mxCell id="bwl6721Emv68G6iye8B_-10" value="3.success" style="html=1;verticalAlign=bottom;endArrow=open;dashed=1;endSize=8;curved=0;rounded=0;" edge="1" parent="1">
          <mxGeometry relative="1" as="geometry">
            <mxPoint x="445" y="400" as="targetPoint" />
            <mxPoint x="640" y="400" as="sourcePoint" />
          </mxGeometry>
        </mxCell>
        <mxCell id="bwl6721Emv68G6iye8B_-11" value="2.删除链路信息" style="html=1;verticalAlign=bottom;endArrow=block;curved=0;rounded=0;entryX=0;entryY=0;entryDx=0;entryDy=5;" edge="1" parent="1" source="bwl6721Emv68G6iye8B_-7" target="bwl6721Emv68G6iye8B_-6">
          <mxGeometry relative="1" as="geometry">
            <mxPoint x="570" y="375" as="sourcePoint" />
          </mxGeometry>
        </mxCell>
        <mxCell id="bwl6721Emv68G6iye8B_-12" value="" style="html=1;points=[[0,0,0,0,5],[0,1,0,0,-5],[1,0,0,0,5],[1,1,0,0,-5]];perimeter=orthogonalPerimeter;outlineConnect=0;targetShapes=umlLifeline;portConstraint=eastwest;newEdgeStyle={&quot;curved&quot;:0,&quot;rounded&quot;:0};" vertex="1" parent="1">
          <mxGeometry x="640" y="420" width="10" height="30" as="geometry" />
        </mxCell>
        <mxCell id="bwl6721Emv68G6iye8B_-13" value="5.success" style="html=1;verticalAlign=bottom;endArrow=open;dashed=1;endSize=8;curved=0;rounded=0;" edge="1" parent="1">
          <mxGeometry relative="1" as="geometry">
            <mxPoint x="445" y="450" as="targetPoint" />
            <mxPoint x="640" y="450" as="sourcePoint" />
          </mxGeometry>
        </mxCell>
        <mxCell id="bwl6721Emv68G6iye8B_-14" value="4.更新节点信息" style="html=1;verticalAlign=bottom;endArrow=block;curved=0;rounded=0;entryX=0;entryY=0;entryDx=0;entryDy=5;" edge="1" parent="1" target="bwl6721Emv68G6iye8B_-12">
          <mxGeometry relative="1" as="geometry">
            <mxPoint x="445" y="425" as="sourcePoint" />
          </mxGeometry>
        </mxCell>
        <mxCell id="bwl6721Emv68G6iye8B_-15" value="" style="html=1;points=[[0,0,0,0,5],[0,1,0,0,-5],[1,0,0,0,5],[1,1,0,0,-5]];perimeter=orthogonalPerimeter;outlineConnect=0;targetShapes=umlLifeline;portConstraint=eastwest;newEdgeStyle={&quot;curved&quot;:0,&quot;rounded&quot;:0};" vertex="1" parent="1">
          <mxGeometry x="640" y="480" width="10" height="30" as="geometry" />
        </mxCell>
        <mxCell id="bwl6721Emv68G6iye8B_-16" value="7.success" style="html=1;verticalAlign=bottom;endArrow=open;dashed=1;endSize=8;curved=0;rounded=0;" edge="1" parent="1">
          <mxGeometry relative="1" as="geometry">
            <mxPoint x="445" y="510" as="targetPoint" />
            <mxPoint x="640" y="510" as="sourcePoint" />
          </mxGeometry>
        </mxCell>
        <mxCell id="bwl6721Emv68G6iye8B_-17" value="6.更新链路信息" style="html=1;verticalAlign=bottom;endArrow=block;curved=0;rounded=0;entryX=0;entryY=0;entryDx=0;entryDy=5;" edge="1" parent="1" target="bwl6721Emv68G6iye8B_-15">
          <mxGeometry relative="1" as="geometry">
            <mxPoint x="445" y="485" as="sourcePoint" />
          </mxGeometry>
        </mxCell>
      </root>
    </mxGraphModel>
  </diagram>
  <diagram id="d-7N_kGDB-vMkupYl1XP" name="第 10 页">
    <mxGraphModel dx="1666" dy="815" grid="1" gridSize="10" guides="1" tooltips="1" connect="1" arrows="1" fold="1" page="1" pageScale="1" pageWidth="827" pageHeight="1169" math="0" shadow="0">
      <root>
        <mxCell id="0" />
        <mxCell id="1" parent="0" />
        <mxCell id="ag345Tuct6J-RcYpiQEJ-30" style="edgeStyle=none;rounded=0;orthogonalLoop=1;jettySize=auto;html=1;entryX=0;entryY=0.5;entryDx=0;entryDy=0;" edge="1" parent="1" source="ag345Tuct6J-RcYpiQEJ-2" target="ag345Tuct6J-RcYpiQEJ-3">
          <mxGeometry relative="1" as="geometry" />
        </mxCell>
        <mxCell id="ag345Tuct6J-RcYpiQEJ-31" style="edgeStyle=none;rounded=0;orthogonalLoop=1;jettySize=auto;html=1;exitX=0.5;exitY=0.5;exitDx=0;exitDy=0;exitPerimeter=0;entryX=0;entryY=0.5;entryDx=0;entryDy=0;" edge="1" parent="1" source="ag345Tuct6J-RcYpiQEJ-1" target="ag345Tuct6J-RcYpiQEJ-3">
          <mxGeometry relative="1" as="geometry" />
        </mxCell>
        <mxCell id="ag345Tuct6J-RcYpiQEJ-32" style="edgeStyle=none;rounded=0;orthogonalLoop=1;jettySize=auto;html=1;exitX=0.5;exitY=0.5;exitDx=0;exitDy=0;exitPerimeter=0;entryX=0;entryY=0.5;entryDx=0;entryDy=0;" edge="1" parent="1" source="ag345Tuct6J-RcYpiQEJ-1" target="ag345Tuct6J-RcYpiQEJ-4">
          <mxGeometry relative="1" as="geometry" />
        </mxCell>
        <mxCell id="ag345Tuct6J-RcYpiQEJ-1" value="网络管理员" style="shape=umlActor;verticalLabelPosition=bottom;verticalAlign=top;html=1;" vertex="1" parent="1">
          <mxGeometry x="160" y="300" width="30" height="60" as="geometry" />
        </mxCell>
        <mxCell id="ag345Tuct6J-RcYpiQEJ-2" value="" style="rounded=0;whiteSpace=wrap;html=1;" vertex="1" parent="1">
          <mxGeometry x="250" y="170" width="360" height="360" as="geometry" />
        </mxCell>
        <mxCell id="ag345Tuct6J-RcYpiQEJ-9" style="rounded=0;orthogonalLoop=1;jettySize=auto;html=1;exitX=1;exitY=0.5;exitDx=0;exitDy=0;entryX=0;entryY=0.5;entryDx=0;entryDy=0;" edge="1" parent="1" source="ag345Tuct6J-RcYpiQEJ-3" target="ag345Tuct6J-RcYpiQEJ-5">
          <mxGeometry relative="1" as="geometry" />
        </mxCell>
        <mxCell id="ag345Tuct6J-RcYpiQEJ-37" value="包含" style="edgeLabel;html=1;align=center;verticalAlign=middle;resizable=0;points=[];" vertex="1" connectable="0" parent="ag345Tuct6J-RcYpiQEJ-9">
          <mxGeometry x="0.1134" y="1" relative="1" as="geometry">
            <mxPoint as="offset" />
          </mxGeometry>
        </mxCell>
        <mxCell id="ag345Tuct6J-RcYpiQEJ-10" style="edgeStyle=none;rounded=0;orthogonalLoop=1;jettySize=auto;html=1;exitX=1;exitY=0.5;exitDx=0;exitDy=0;entryX=0;entryY=0.5;entryDx=0;entryDy=0;" edge="1" parent="1" source="ag345Tuct6J-RcYpiQEJ-3" target="ag345Tuct6J-RcYpiQEJ-6">
          <mxGeometry relative="1" as="geometry" />
        </mxCell>
        <mxCell id="ag345Tuct6J-RcYpiQEJ-38" value="包含" style="edgeLabel;html=1;align=center;verticalAlign=middle;resizable=0;points=[];" vertex="1" connectable="0" parent="ag345Tuct6J-RcYpiQEJ-10">
          <mxGeometry x="0.1185" y="-1" relative="1" as="geometry">
            <mxPoint as="offset" />
          </mxGeometry>
        </mxCell>
        <mxCell id="ag345Tuct6J-RcYpiQEJ-11" style="edgeStyle=none;rounded=0;orthogonalLoop=1;jettySize=auto;html=1;exitX=1;exitY=0.5;exitDx=0;exitDy=0;entryX=0;entryY=0.5;entryDx=0;entryDy=0;" edge="1" parent="1" source="ag345Tuct6J-RcYpiQEJ-3" target="ag345Tuct6J-RcYpiQEJ-7">
          <mxGeometry relative="1" as="geometry" />
        </mxCell>
        <mxCell id="ag345Tuct6J-RcYpiQEJ-40" value="包含" style="edgeLabel;html=1;align=center;verticalAlign=middle;resizable=0;points=[];" vertex="1" connectable="0" parent="ag345Tuct6J-RcYpiQEJ-11">
          <mxGeometry x="0.3253" relative="1" as="geometry">
            <mxPoint as="offset" />
          </mxGeometry>
        </mxCell>
        <mxCell id="ag345Tuct6J-RcYpiQEJ-12" style="edgeStyle=none;rounded=0;orthogonalLoop=1;jettySize=auto;html=1;exitX=1;exitY=0.5;exitDx=0;exitDy=0;entryX=0;entryY=0.5;entryDx=0;entryDy=0;" edge="1" parent="1" source="ag345Tuct6J-RcYpiQEJ-3" target="ag345Tuct6J-RcYpiQEJ-8">
          <mxGeometry relative="1" as="geometry" />
        </mxCell>
        <mxCell id="ag345Tuct6J-RcYpiQEJ-41" value="包含" style="edgeLabel;html=1;align=center;verticalAlign=middle;resizable=0;points=[];" vertex="1" connectable="0" parent="ag345Tuct6J-RcYpiQEJ-12">
          <mxGeometry x="0.1513" relative="1" as="geometry">
            <mxPoint as="offset" />
          </mxGeometry>
        </mxCell>
        <mxCell id="ag345Tuct6J-RcYpiQEJ-3" value="网络管理" style="ellipse;whiteSpace=wrap;html=1;" vertex="1" parent="1">
          <mxGeometry x="280" y="220" width="120" height="50" as="geometry" />
        </mxCell>
        <mxCell id="ag345Tuct6J-RcYpiQEJ-33" style="edgeStyle=none;rounded=0;orthogonalLoop=1;jettySize=auto;html=1;exitX=1;exitY=0.5;exitDx=0;exitDy=0;entryX=0;entryY=0.5;entryDx=0;entryDy=0;" edge="1" parent="1" source="ag345Tuct6J-RcYpiQEJ-4" target="ag345Tuct6J-RcYpiQEJ-21">
          <mxGeometry relative="1" as="geometry" />
        </mxCell>
        <mxCell id="ag345Tuct6J-RcYpiQEJ-42" value="包含" style="edgeLabel;html=1;align=center;verticalAlign=middle;resizable=0;points=[];" vertex="1" connectable="0" parent="ag345Tuct6J-RcYpiQEJ-33">
          <mxGeometry x="0.239" y="-4" relative="1" as="geometry">
            <mxPoint as="offset" />
          </mxGeometry>
        </mxCell>
        <mxCell id="ag345Tuct6J-RcYpiQEJ-34" style="edgeStyle=none;rounded=0;orthogonalLoop=1;jettySize=auto;html=1;exitX=1;exitY=0.5;exitDx=0;exitDy=0;entryX=0;entryY=0.5;entryDx=0;entryDy=0;" edge="1" parent="1" source="ag345Tuct6J-RcYpiQEJ-4" target="ag345Tuct6J-RcYpiQEJ-22">
          <mxGeometry relative="1" as="geometry" />
        </mxCell>
        <mxCell id="ag345Tuct6J-RcYpiQEJ-43" value="包含" style="edgeLabel;html=1;align=center;verticalAlign=middle;resizable=0;points=[];" vertex="1" connectable="0" parent="ag345Tuct6J-RcYpiQEJ-34">
          <mxGeometry x="0.1631" y="3" relative="1" as="geometry">
            <mxPoint as="offset" />
          </mxGeometry>
        </mxCell>
        <mxCell id="ag345Tuct6J-RcYpiQEJ-35" style="edgeStyle=none;rounded=0;orthogonalLoop=1;jettySize=auto;html=1;exitX=1;exitY=0.5;exitDx=0;exitDy=0;entryX=0;entryY=0.5;entryDx=0;entryDy=0;" edge="1" parent="1" source="ag345Tuct6J-RcYpiQEJ-4" target="ag345Tuct6J-RcYpiQEJ-23">
          <mxGeometry relative="1" as="geometry" />
        </mxCell>
        <mxCell id="ag345Tuct6J-RcYpiQEJ-44" value="包含" style="edgeLabel;html=1;align=center;verticalAlign=middle;resizable=0;points=[];" vertex="1" connectable="0" parent="ag345Tuct6J-RcYpiQEJ-35">
          <mxGeometry x="0.0666" y="3" relative="1" as="geometry">
            <mxPoint as="offset" />
          </mxGeometry>
        </mxCell>
        <mxCell id="ag345Tuct6J-RcYpiQEJ-36" style="edgeStyle=none;rounded=0;orthogonalLoop=1;jettySize=auto;html=1;exitX=1;exitY=0.5;exitDx=0;exitDy=0;entryX=0;entryY=0.5;entryDx=0;entryDy=0;" edge="1" parent="1" source="ag345Tuct6J-RcYpiQEJ-4" target="ag345Tuct6J-RcYpiQEJ-24">
          <mxGeometry relative="1" as="geometry" />
        </mxCell>
        <mxCell id="ag345Tuct6J-RcYpiQEJ-45" value="包含" style="edgeLabel;html=1;align=center;verticalAlign=middle;resizable=0;points=[];" vertex="1" connectable="0" parent="ag345Tuct6J-RcYpiQEJ-36">
          <mxGeometry x="-0.15" y="-2" relative="1" as="geometry">
            <mxPoint as="offset" />
          </mxGeometry>
        </mxCell>
        <mxCell id="ag345Tuct6J-RcYpiQEJ-4" value="时钟同步域管理" style="ellipse;whiteSpace=wrap;html=1;" vertex="1" parent="1">
          <mxGeometry x="280" y="400" width="120" height="50" as="geometry" />
        </mxCell>
        <mxCell id="ag345Tuct6J-RcYpiQEJ-5" value="查询网络" style="ellipse;whiteSpace=wrap;html=1;" vertex="1" parent="1">
          <mxGeometry x="480" y="190" width="90" height="20" as="geometry" />
        </mxCell>
        <mxCell id="ag345Tuct6J-RcYpiQEJ-6" value="添加网络&lt;span style=&quot;color: rgba(0, 0, 0, 0); font-family: monospace; font-size: 0px; text-align: start; text-wrap-mode: nowrap;&quot;&gt;%3CmxGraphModel%3E%3Croot%3E%3CmxCell%20id%3D%220%22%2F%3E%3CmxCell%20id%3D%221%22%20parent%3D%220%22%2F%3E%3CmxCell%20id%3D%222%22%20value%3D%22%E6%9F%A5%E8%AF%A2%E7%BD%91%E7%BB%9C%22%20style%3D%22ellipse%3BwhiteSpace%3Dwrap%3Bhtml%3D1%3B%22%20vertex%3D%221%22%20parent%3D%221%22%3E%3CmxGeometry%20x%3D%22450%22%20y%3D%22190%22%20width%3D%22120%22%20height%3D%2240%22%20as%3D%22geometry%22%2F%3E%3C%2FmxCell%3E%3C%2Froot%3E%3C%2FmxGraphModel%3E&lt;/span&gt;" style="ellipse;whiteSpace=wrap;html=1;" vertex="1" parent="1">
          <mxGeometry x="480" y="220" width="90" height="20" as="geometry" />
        </mxCell>
        <mxCell id="ag345Tuct6J-RcYpiQEJ-7" value="更新网络&lt;span style=&quot;color: rgba(0, 0, 0, 0); font-family: monospace; font-size: 0px; text-align: start; text-wrap-mode: nowrap;&quot;&gt;%3CmxGraphModel%3E%3Croot%3E%3CmxCell%20id%3D%220%22%2F%3E%3CmxCell%20id%3D%221%22%20parent%3D%220%22%2F%3E%3CmxCell%20id%3D%222%22%20value%3D%22%E6%B7%BB%E5%8A%A0%E7%BD%91%E7%BB%9C%26lt%3Bspan%20style%3D%26quot%3Bcolor%3A%20rgba(0%2C%200%2C%200%2C%200)%3B%20font-family%3A%20monospace%3B%20font-size%3A%200px%3B%20text-align%3A%20start%3B%20text-wrap-mode%3A%20nowrap%3B%26quot%3B%26gt%3B%253CmxGraphModel%253E%253Croot%253E%253CmxCell%2520id%253D%25220%2522%252F%253E%253CmxCell%2520id%253D%25221%2522%2520parent%253D%25220%2522%252F%253E%253CmxCell%2520id%253D%25222%2522%2520value%253D%2522%25E6%259F%25A5%25E8%25AF%25A2%25E7%25BD%2591%25E7%25BB%259C%2522%2520style%253D%2522ellipse%253BwhiteSpace%253Dwrap%253Bhtml%253D1%253B%2522%2520vertex%253D%25221%2522%2520parent%253D%25221%2522%253E%253CmxGeometry%2520x%253D%2522450%2522%2520y%253D%2522190%2522%2520width%253D%2522120%2522%2520height%253D%252240%2522%2520as%253D%2522geometry%2522%252F%253E%253C%252FmxCell%253E%253C%252Froot%253E%253C%252FmxGraphModel%253E%26lt%3B%2Fspan%26gt%3B%22%20style%3D%22ellipse%3BwhiteSpace%3Dwrap%3Bhtml%3D1%3B%22%20vertex%3D%221%22%20parent%3D%221%22%3E%3CmxGeometry%20x%3D%22450%22%20y%3D%22240%22%20width%3D%22120%22%20height%3D%2240%22%20as%3D%22geometry%22%2F%3E%3C%2FmxCell%3E%3C%2Froot%3E%3C%2FmxGraphModel%3E&lt;/span&gt;&lt;span style=&quot;color: rgba(0, 0, 0, 0); font-family: monospace; font-size: 0px; text-align: start; text-wrap-mode: nowrap;&quot;&gt;%3CmxGraphModel%3E%3Croot%3E%3CmxCell%20id%3D%220%22%2F%3E%3CmxCell%20id%3D%221%22%20parent%3D%220%22%2F%3E%3CmxCell%20id%3D%222%22%20value%3D%22%E6%B7%BB%E5%8A%A0%E7%BD%91%E7%BB%9C%26lt%3Bspan%20style%3D%26quot%3Bcolor%3A%20rgba(0%2C%200%2C%200%2C%200)%3B%20font-family%3A%20monospace%3B%20font-size%3A%200px%3B%20text-align%3A%20start%3B%20text-wrap-mode%3A%20nowrap%3B%26quot%3B%26gt%3B%253CmxGraphModel%253E%253Croot%253E%253CmxCell%2520id%253D%25220%2522%252F%253E%253CmxCell%2520id%253D%25221%2522%2520parent%253D%25220%2522%252F%253E%253CmxCell%2520id%253D%25222%2522%2520value%253D%2522%25E6%259F%25A5%25E8%25AF%25A2%25E7%25BD%2591%25E7%25BB%259C%2522%2520style%253D%2522ellipse%253BwhiteSpace%253Dwrap%253Bhtml%253D1%253B%2522%2520vertex%253D%25221%2522%2520parent%253D%25221%2522%253E%253CmxGeometry%2520x%253D%2522450%2522%2520y%253D%2522190%2522%2520width%253D%2522120%2522%2520height%253D%252240%2522%2520as%253D%2522geometry%2522%252F%253E%253C%252FmxCell%253E%253C%252Froot%253E%253C%252FmxGraphModel%253E%26lt%3B%2Fspan%26gt%3B%22%20style%3D%22ellipse%3BwhiteSpace%3Dwrap%3Bhtml%3D1%3B%22%20vertex%3D%221%22%20parent%3D%221%22%3E%3CmxGeometry%20x%3D%22450%22%20y%3D%22240%22%20width%3D%22120%22%20height%3D%2240%22%20as%3D%22geometry%22%2F%3E%3C%2FmxCell%3E%3C%2Froot%3E%3C%2FmxGraphModel%3E&lt;/span&gt;" style="ellipse;whiteSpace=wrap;html=1;" vertex="1" parent="1">
          <mxGeometry x="480" y="250" width="90" height="20" as="geometry" />
        </mxCell>
        <mxCell id="ag345Tuct6J-RcYpiQEJ-8" value="删除网络" style="ellipse;whiteSpace=wrap;html=1;" vertex="1" parent="1">
          <mxGeometry x="480" y="280" width="90" height="20" as="geometry" />
        </mxCell>
        <mxCell id="ag345Tuct6J-RcYpiQEJ-21" value="查询分域情况" style="ellipse;whiteSpace=wrap;html=1;" vertex="1" parent="1">
          <mxGeometry x="460" y="347.5" width="120" height="30" as="geometry" />
        </mxCell>
        <mxCell id="ag345Tuct6J-RcYpiQEJ-22" value="查询子域拓扑情况" style="ellipse;whiteSpace=wrap;html=1;" vertex="1" parent="1">
          <mxGeometry x="460" y="388.5" width="120" height="30" as="geometry" />
        </mxCell>
        <mxCell id="ag345Tuct6J-RcYpiQEJ-23" value="查询时钟同步树" style="ellipse;whiteSpace=wrap;html=1;" vertex="1" parent="1">
          <mxGeometry x="460" y="430.5" width="120" height="30" as="geometry" />
        </mxCell>
        <mxCell id="ag345Tuct6J-RcYpiQEJ-24" value="更新时钟同步域" style="ellipse;whiteSpace=wrap;html=1;" vertex="1" parent="1">
          <mxGeometry x="460" y="472.5" width="120" height="30" as="geometry" />
        </mxCell>
      </root>
    </mxGraphModel>
  </diagram>
</mxfile>
